<svg width="116" height="27" viewBox="0 0 116 27" fill="none" xmlns="http://www.w3.org/2000/svg">
<rect width="115.714" height="27" fill="white"/>
<path d="M13.4404 5.9987C14.0061 6.66522 14.436 7.43343 14.7528 8.3146C15.0582 9.19577 15.2166 10.2012 15.2166 11.3309C15.2166 12.4606 15.0356 13.4548 14.6623 14.3811C14.2889 15.2962 13.8024 16.087 13.1915 16.7309C12.558 17.3862 11.8452 17.8945 11.0646 18.2447C10.284 18.5949 9.45807 18.7757 8.57562 18.7757C7.69317 18.7757 7.02567 18.6853 6.48262 18.4933C5.93958 18.3012 5.49835 18.0753 5.15895 17.8267H5.04581V24.3226C5.04581 24.6615 5.11369 24.9552 5.24945 25.1811C5.38522 25.4071 5.58886 25.5765 5.86038 25.6782C6.08665 25.7686 6.41474 25.8477 6.84466 25.9268C7.26325 26.0058 7.61397 26.051 7.89681 26.0623V27H0V26.0623C0.29415 26.0397 0.576987 26.0171 0.859824 25.9945C1.14266 25.9719 1.38024 25.9155 1.60651 25.8477C1.88935 25.7573 2.09299 25.5878 2.20613 25.3506C2.31926 25.1134 2.37583 24.8309 2.37583 24.5033V7.26397C2.37583 6.98155 2.30795 6.69911 2.16087 6.43928C2.0138 6.17945 1.83278 5.95351 1.60651 5.79535C1.43681 5.68238 1.19923 5.59201 0.893765 5.53552C0.588301 5.47903 0.29415 5.43385 0.0113135 5.41125V4.47359L4.81954 4.15727L5.02319 4.32673V5.90832L5.13632 5.94222C5.63411 5.36606 6.24504 4.89158 6.98042 4.51878C7.71579 4.14598 8.43986 3.94263 9.16392 3.94263C10.0351 3.94263 10.8383 4.12338 11.5737 4.49618C12.3091 4.86899 12.9313 5.36606 13.4517 5.9987H13.4404ZM11.1098 16.1209C11.4945 15.5334 11.7773 14.8443 11.9583 14.0648C12.1394 13.2853 12.2299 12.4154 12.2299 11.4552C12.2299 10.7548 12.1507 10.0318 12.0036 9.29744C11.8565 8.56313 11.6076 7.9305 11.2909 7.38824C10.9628 6.83468 10.5442 6.39409 10.0237 6.04389C9.50332 5.69368 8.86977 5.52422 8.13439 5.52422C7.39902 5.52422 6.83334 5.68238 6.33555 5.9874C5.83776 6.29242 5.40784 6.66523 5.04581 7.09451V15.4205C5.13632 15.6803 5.27208 15.9401 5.46441 16.2226C5.65674 16.4937 5.8717 16.7309 6.10928 16.9343C6.40343 17.1715 6.72021 17.3636 7.07093 17.5104C7.42164 17.6573 7.82893 17.7364 8.32672 17.7364C8.85846 17.7364 9.37888 17.6008 9.86535 17.3184C10.3518 17.036 10.7704 16.6405 11.1098 16.1209Z" fill="#231815"/>
<path d="M29.7197 15.0929C29.1314 16.2113 28.3395 17.1151 27.3439 17.7816C26.3483 18.4482 25.217 18.7758 23.9272 18.7758C22.7959 18.7758 21.8003 18.5724 20.9518 18.177C20.1033 17.7816 19.3905 17.2394 18.8475 16.5502C18.2931 15.8611 17.8858 15.0703 17.6143 14.1553C17.3428 13.2402 17.207 12.2799 17.207 11.2519C17.207 10.3368 17.3541 9.44438 17.6483 8.56321C17.9424 7.68204 18.361 6.89123 18.9267 6.19081C19.4697 5.51299 20.1485 4.97073 20.9518 4.55274C21.7551 4.13475 22.6601 3.9314 23.6557 3.9314C24.6513 3.9314 25.5677 4.08956 26.3031 4.41717C27.0384 4.74479 27.6267 5.18537 28.0906 5.75023C28.5318 6.28119 28.8599 6.91383 29.0749 7.63685C29.2898 8.35986 29.3916 9.15065 29.3916 9.99793V10.9356H20.058C20.058 11.862 20.1485 12.6979 20.3182 13.4548C20.4879 14.2117 20.7708 14.867 21.1554 15.4431C21.5288 15.9967 22.0153 16.4373 22.6149 16.7536C23.2145 17.0699 23.9272 17.2281 24.7644 17.2281C25.6016 17.2281 26.3483 17.0247 26.9593 16.6293C27.5702 16.2339 28.1698 15.5222 28.7355 14.4829L29.7311 15.0929H29.7197ZM26.5633 9.72681C26.5633 9.19584 26.518 8.63099 26.4275 8.02094C26.337 7.4109 26.1899 6.90253 25.9863 6.49584C25.7713 6.05525 25.4659 5.70504 25.0812 5.43391C24.6966 5.16278 24.2101 5.01592 23.6105 5.01592C22.6149 5.01592 21.7777 5.43391 21.1215 6.2586C20.4653 7.08329 20.1033 8.24689 20.0467 9.72681H26.5633Z" fill="#231815"/>
<path d="M40.9206 6.14554C40.9206 6.63131 40.7962 7.0606 40.5586 7.43341C40.321 7.80621 39.959 7.99826 39.4612 7.99826C38.9294 7.99826 38.5221 7.86269 38.2393 7.58027C37.9565 7.30914 37.8207 7.00412 37.8207 6.66521C37.8207 6.45056 37.832 6.2698 37.866 6.08905C37.8999 5.9196 37.9338 5.75014 37.9565 5.58069C37.5039 5.58069 36.9835 5.76143 36.3839 6.12294C35.7843 6.48445 35.2752 6.99282 34.8566 7.65935V15.8497C34.8566 16.1773 34.9245 16.4598 35.0489 16.6631C35.1734 16.8778 35.377 17.0246 35.6598 17.1376C35.8974 17.228 36.2029 17.3071 36.5762 17.3522C36.9496 17.3974 37.2777 17.4313 37.5605 17.4539V18.3916H30.1275V17.4539C30.3425 17.4313 30.5688 17.42 30.8064 17.3974C31.0439 17.3748 31.2476 17.3409 31.4173 17.2845C31.6888 17.1941 31.8811 17.0472 32.0169 16.8326C32.1413 16.6179 32.2092 16.3355 32.2092 15.9966V7.30914C32.2092 7.01541 32.1413 6.72169 32.0056 6.43926C31.8698 6.15683 31.6775 5.93089 31.4286 5.75014C31.2476 5.63716 31.0326 5.55808 30.7837 5.5016C30.5348 5.44511 30.2746 5.41123 29.9805 5.39993V4.46227L34.6642 4.14595L34.8679 4.3493V6.33759H34.9358C35.5241 5.56939 36.1803 4.98193 36.9043 4.58654C37.6284 4.19114 38.2959 3.98779 38.8955 3.98779C39.4951 3.98779 39.9816 4.17984 40.3549 4.57524C40.7283 4.97064 40.9206 5.49031 40.9206 6.14554Z" fill="#231815"/>
<path d="M66.2396 18.4028H59.3723V17.4652C59.5873 17.4426 59.8135 17.4313 60.0398 17.4087C60.2661 17.3861 60.4584 17.3522 60.6281 17.2957C60.8996 17.2053 61.092 17.0585 61.2277 16.8438C61.3522 16.6292 61.4201 16.3468 61.4201 16.0078V8.74382C61.4201 7.74968 61.1938 6.99277 60.7412 6.45051C60.2887 5.90825 59.723 5.64842 59.0442 5.64842C58.5804 5.64842 58.1391 5.71621 57.7319 5.86307C57.3246 6.00993 56.9512 6.20198 56.6005 6.46181C56.329 6.67646 56.0914 6.9024 55.9104 7.13963C55.7294 7.37687 55.5823 7.58022 55.4918 7.74968V15.8723C55.4918 16.1999 55.5484 16.4823 55.6615 16.697C55.7746 16.9116 55.967 17.0811 56.2498 17.194C56.4647 17.2844 56.6684 17.3409 56.8381 17.3861C57.0078 17.4313 57.2454 17.4652 57.5282 17.4765V18.4141H50.808V17.4765C51.023 17.4539 51.2379 17.4426 51.4416 17.42C51.6452 17.3974 51.8375 17.3635 52.0072 17.307C52.2788 17.2166 52.4711 17.0698 52.5955 16.8551C52.72 16.6405 52.7879 16.3581 52.7879 16.0191V8.75512C52.7879 7.76097 52.5616 7.00407 52.1091 6.46181C51.6565 5.91955 51.0908 5.65972 50.412 5.65972C49.9482 5.65972 49.507 5.7388 49.0884 5.88566C48.6698 6.03252 48.2964 6.23587 47.957 6.4957C47.6855 6.71035 47.4479 6.93628 47.2556 7.20741C47.0632 7.46725 46.9162 7.6706 46.8257 7.79487V15.861C46.8257 16.1886 46.8935 16.4597 47.0293 16.6744C47.1651 16.889 47.3574 17.0585 47.6289 17.1714C47.8326 17.2618 48.0362 17.3409 48.2398 17.3861C48.4435 17.4313 48.6811 17.4652 48.9413 17.4878V18.4254H42.0966V17.4878C42.3116 17.4652 42.5379 17.4539 42.7754 17.4313C43.013 17.4087 43.2167 17.3748 43.3864 17.3183C43.6579 17.2279 43.8502 17.0811 43.986 16.8664C44.1104 16.6518 44.1783 16.3694 44.1783 16.0304V7.28649C44.1783 6.98147 44.1104 6.71035 43.9747 6.46181C43.8389 6.22457 43.6466 6.00992 43.3977 5.84047C43.2167 5.7275 42.9904 5.63712 42.7302 5.55804C42.4587 5.49026 42.1871 5.44507 41.9043 5.42247V4.48482L46.622 4.1685L46.8257 4.37184V6.38273H46.9275C47.1651 6.14549 47.4592 5.86307 47.7986 5.53545C48.138 5.20784 48.4661 4.948 48.7603 4.75595C49.0884 4.53001 49.507 4.33795 50.0161 4.1798C50.5139 4.03293 51.0569 3.95386 51.6339 3.95386C52.5503 3.95386 53.3309 4.20239 53.9871 4.68817C54.6433 5.17394 55.1184 5.77269 55.4013 6.46181C55.7407 6.1342 56.0461 5.84047 56.3064 5.58064C56.5666 5.3321 56.9173 5.06097 57.3359 4.77854C57.6979 4.53 58.1278 4.32666 58.6143 4.1798C59.1008 4.03293 59.6438 3.95386 60.2434 3.95386C61.4314 3.95386 62.3704 4.34926 63.0718 5.12876C63.7619 5.90825 64.1127 7.10575 64.1127 8.72123V15.8723C64.1127 16.1999 64.1692 16.4823 64.2824 16.697C64.3955 16.9116 64.5878 17.0811 64.8707 17.194C65.0856 17.2844 65.3119 17.3409 65.5155 17.3861C65.7192 17.4313 65.9681 17.4652 66.2396 17.4765V18.4141V18.4028Z" fill="#231815"/>
<path d="M102.998 17.7929C102.376 18.0527 101.787 18.2674 101.233 18.4368C100.679 18.6063 99.9997 18.6967 99.2078 18.6967C98.0312 18.6967 97.194 18.403 96.7188 17.8042C96.2323 17.2055 95.9948 16.3695 95.9948 15.285V5.75021H93.4492V4.38327H96.0513V0H98.6534V4.38327H102.704V5.75021H98.6874V13.613C98.6874 14.2004 98.71 14.6975 98.7552 15.0929C98.8005 15.4883 98.9023 15.8272 99.0607 16.1322C99.2078 16.4034 99.4454 16.618 99.7508 16.7649C100.056 16.9117 100.464 16.9795 100.984 16.9795C101.222 16.9795 101.572 16.9569 102.036 16.9117C102.5 16.8665 102.828 16.8101 103.02 16.7423V17.7816L102.998 17.7929Z" fill="#231815"/>
<path d="M115.702 15.0929C115.114 16.2113 114.322 17.1151 113.326 17.7816C112.331 18.4482 111.199 18.7758 109.91 18.7758C108.778 18.7758 107.783 18.5724 106.934 18.177C106.086 17.7816 105.373 17.2394 104.83 16.5502C104.276 15.8611 103.868 15.0703 103.597 14.1553C103.325 13.2402 103.189 12.2799 103.189 11.2519C103.189 10.3368 103.337 9.44438 103.631 8.56321C103.925 7.68204 104.343 6.89123 104.909 6.19081C105.452 5.51299 106.131 4.97073 106.934 4.55274C107.737 4.13475 108.643 3.9314 109.638 3.9314C110.634 3.9314 111.55 4.08956 112.285 4.41717C113.021 4.74479 113.609 5.18537 114.073 5.75023C114.514 6.28119 114.842 6.91383 115.057 7.63685C115.272 8.35986 115.374 9.15065 115.374 9.99793V10.9356H106.04C106.04 11.862 106.131 12.6979 106.301 13.4548C106.47 14.2117 106.753 14.867 107.138 15.4431C107.511 15.9967 107.998 16.4373 108.597 16.7536C109.197 17.0699 109.91 17.2281 110.747 17.2281C111.584 17.2281 112.331 17.0247 112.942 16.6293C113.553 16.2339 114.152 15.5222 114.718 14.4829L115.713 15.0929H115.702ZM112.546 9.72681C112.546 9.19584 112.5 8.63099 112.41 8.02094C112.319 7.4109 112.172 6.90253 111.969 6.49584C111.754 6.05525 111.448 5.70504 111.064 5.43391C110.679 5.16278 110.192 5.01592 109.593 5.01592C108.597 5.01592 107.76 5.43391 107.104 6.2586C106.448 7.08329 106.086 8.24689 106.029 9.72681H112.546Z" fill="#231815"/>
<path d="M93.2465 17.2281C92.941 17.2281 92.7148 17.1716 92.5677 17.0812C92.2962 16.9343 92.1038 16.7423 91.9794 16.5276C91.8549 16.313 91.7871 16.0193 91.7871 15.6465C91.7871 14.4038 91.7984 13.2515 91.8323 12.2009C91.8663 11.1502 91.8776 9.94145 91.8776 8.5858C91.8776 8.22429 91.8436 7.91927 91.8097 7.60295C91.8549 7.64814 91.8889 7.68204 91.8776 7.63685C91.8663 7.59166 91.821 7.52387 91.7984 7.46739C91.7418 7.01551 91.64 6.59751 91.5042 6.2473C91.2553 5.64856 90.882 5.16279 90.3955 4.81258C89.909 4.45107 89.366 4.21383 88.7777 4.10085C88.1781 3.98788 87.4879 3.9314 86.6847 3.9314C86.6507 3.9314 86.6168 3.9314 86.5715 3.9314C86.5376 3.9314 86.5037 3.9314 86.4697 3.9314C85.4741 3.9314 84.5691 4.13475 83.7658 4.55274C82.9626 4.97073 82.2837 5.51299 81.7407 6.19081C81.175 6.89123 80.8696 7.58036 80.5754 8.46153C80.4962 8.71007 79.9645 10.8339 79.5346 12.0201C79.1047 13.2063 78.4937 14.2005 78.4937 14.2005C77.9167 15.2285 77.0682 16.2339 76.4573 16.6293C75.8464 17.0247 75.111 17.2281 74.2625 17.2281C73.414 17.2281 72.7125 17.0699 72.1129 16.7536C71.5133 16.4373 71.0268 15.9967 70.6535 15.4431C70.2688 14.867 69.9973 14.2117 69.8163 13.4548C69.6353 12.6979 69.5561 11.862 69.5561 10.9356H78.8897V9.99793C78.8897 9.15065 78.7879 8.37116 78.5729 7.63685C78.358 6.91383 78.0299 6.28119 77.5886 5.75023C77.1361 5.18537 76.5365 4.74479 75.8011 4.41717C75.0657 4.08956 74.1833 3.9314 73.1538 3.9314C72.1242 3.9314 71.2531 4.13475 70.4498 4.55274C69.6466 4.97073 68.9678 5.51299 68.4247 6.19081C67.8591 6.89123 67.4405 7.68204 67.1463 8.56321C66.8522 9.44438 66.7051 10.3368 66.7051 11.2519C66.7051 12.2686 66.8408 13.2402 67.1124 14.1553C67.3839 15.0703 67.7912 15.8724 68.3455 16.5502C68.8999 17.2394 69.6013 17.7816 70.4498 18.177C71.2984 18.5724 72.2939 18.7758 73.4253 18.7758C73.4479 18.7758 73.4819 18.7758 73.5045 18.7758C74.0249 18.7871 74.6358 18.7532 75.3146 18.6063C79.1612 17.8155 81.0506 13.4322 81.571 12.0088C82.7476 9.08287 82.9173 8.31467 83.4603 7.16236C84.0034 6.01006 84.8745 5.35483 85.2592 5.19667C85.6325 5.04981 86.0398 4.98203 86.481 4.98203C87.1146 4.98203 87.6124 5.1176 87.9631 5.37743C88.3138 5.63726 88.5853 5.94228 88.7664 6.30379C88.9361 6.62011 89.0492 6.94772 89.1058 7.29793C89.1623 7.64814 89.185 7.88538 89.185 8.00964V9.42178C88.7324 9.67032 87.8387 10.0092 86.5376 10.4498C85.2366 10.8904 84.3541 11.1841 83.9242 11.3536C83.5848 11.4891 83.2114 11.6699 82.8268 11.8845C82.4308 12.1105 82.1253 12.359 81.8878 12.6527C81.5823 12.9917 81.356 13.3758 81.1976 13.8051C81.0506 14.2343 80.9714 14.7201 80.9714 15.2624C80.9714 16.313 81.3108 17.1603 81.9896 17.8042C82.6684 18.4482 83.5395 18.7758 84.603 18.7758C85.5986 18.7758 86.4584 18.595 87.1712 18.2335C87.8839 17.872 88.5401 17.3523 89.1623 16.6632H89.2528C89.3773 17.3297 89.6601 17.8381 90.1014 18.1883C90.5426 18.5385 91.1422 18.708 91.8776 18.708C92.3075 18.708 92.6921 18.6628 93.0316 18.5611C93.371 18.4595 93.7669 18.3352 94.2081 18.1657V17.2507C93.8801 17.2507 93.5633 17.2507 93.2578 17.2394L93.2465 17.2281ZM70.6195 6.2586C71.287 5.43391 72.1129 5.01592 73.1085 5.01592C73.7081 5.01592 74.1946 5.15148 74.5793 5.43391C74.9639 5.70504 75.2581 6.06655 75.4843 6.49584C75.688 6.90253 75.8351 7.4109 75.9256 8.02094C76.0161 8.63099 76.0613 9.19584 76.0613 9.72681H69.5448C69.6013 8.24689 69.9634 7.09459 70.6195 6.2586ZM89.1284 15.5448C88.7777 15.9967 88.3365 16.3808 87.8273 16.7084C87.3182 17.036 86.7186 17.2055 86.0398 17.2055C85.4063 17.2055 84.8745 17.0247 84.4559 16.6519C84.0373 16.2791 83.8337 15.703 83.8337 14.9009C83.8337 14.2908 83.9695 13.7599 84.2523 13.3193C84.5238 12.8787 84.9085 12.4946 85.3836 12.167C85.9041 11.8281 86.4697 11.5343 87.0807 11.3084C87.6916 11.0825 88.4043 10.8452 89.2076 10.608L89.1171 15.5448H89.1284Z" fill="#231815"/>
</svg>
