<svg xmlns="http://www.w3.org/2000/svg" width="28" height="29" viewBox="0 0 28 29" fill="none">
  <path d="M17.421 2.9636C16.2983 1.69734 14.7303 1 12.9996 1C11.2596 1 9.6864 1.69311 8.56893 2.95155C7.43933 4.22385 6.88897 5.95299 7.0182 7.82015C7.27435 11.5038 9.95755 14.5005 12.9996 14.5005C16.0416 14.5005 18.7201 11.5045 18.9804 7.82136C19.1113 5.97107 18.5575 4.24555 17.421 2.9636ZM23.1535 27.9999H2.84643C2.58063 28.0033 2.31739 27.9451 2.07588 27.829C1.83438 27.7131 1.62067 27.5422 1.45031 27.3291C1.07533 26.8606 0.924173 26.2213 1.0361 25.5746C1.52301 22.7526 3.04258 20.3823 5.43098 18.7183C7.55285 17.2409 10.2407 16.428 13 16.428C15.7594 16.428 18.4471 17.2415 20.569 18.7183C22.9575 20.3817 24.477 22.752 24.9638 25.574C25.0759 26.2207 24.9247 26.86 24.5498 27.3283C24.3794 27.5416 24.1658 27.7127 23.9241 27.8288C23.6826 27.9449 23.4194 28.0033 23.1535 27.9999Z" stroke="#302A28"/>
</svg>