<svg width="72" height="72" viewBox="0 0 72 72" fill="none" xmlns="http://www.w3.org/2000/svg">
<rect width="72" height="72" rx="14.72" fill="#FFFBEE"/>
<path d="M15.5215 36V27.5156H19.1543C21.0879 27.5156 22.1074 28.3477 22.1074 29.6484C22.1074 30.5859 21.4395 31.3008 20.4785 31.5V31.582C21.5449 31.6172 22.4355 32.4023 22.4355 33.6094C22.4355 34.9922 21.3105 36 19.459 36H15.5215ZM18.8848 34.207C19.6816 34.207 20.0801 33.9023 20.0801 33.3281C20.0801 32.707 19.6348 32.3555 18.9199 32.3555H17.748V34.207H18.8848ZM18.7441 30.9609C19.3652 30.9609 19.8105 30.6562 19.8105 30.1172C19.8105 29.5781 19.3887 29.2734 18.7793 29.2734H17.748V30.9609H18.7441ZM23.291 36V27.5156H26.9004C28.7988 27.5156 30.041 28.5938 30.041 30.3867C30.041 31.5586 29.502 32.3906 28.5879 32.8242L30.3223 36H27.8965L26.3965 33.1758H25.5176V36H23.291ZM25.5176 31.4297H26.3848C27.2285 31.4297 27.709 31.125 27.709 30.3867C27.709 29.6367 27.2285 29.2969 26.3848 29.2969H25.5176V31.4297ZM33.1465 36H30.7324L33.5566 27.5156H36.5918L39.4043 36H37.002L36.498 34.3359H33.6504L33.1465 36ZM34.166 32.6484H35.9824L35.1035 29.8008H35.0332L34.166 32.6484ZM47.5488 27.5156V36H45.6855L42.5332 31.418H42.4746V36H40.248V27.5156H42.1465L45.252 32.0742H45.3223V27.5156H47.5488ZM51.9199 36H48.6973V27.5156H51.8965C54.5098 27.5156 56.1387 29.1094 56.1387 31.7578C56.1387 34.4062 54.5098 36 51.9199 36ZM50.9238 34.1016H51.8379C53.1504 34.1016 53.8887 33.5508 53.8887 31.7578C53.8887 29.9648 53.1504 29.4141 51.7793 29.4141H50.9238V34.1016Z" fill="#302A28"/>
<path d="M22.4609 50V41.5156H26.0703C27.9688 41.5156 29.2109 42.7109 29.2109 44.4922C29.2109 46.3086 27.9336 47.4453 26 47.4453H24.6875V50H22.4609ZM24.6875 45.7109H25.5547C26.3984 45.7109 26.8789 45.2422 26.8789 44.4922C26.8789 43.7539 26.3984 43.2969 25.5547 43.2969H24.6875V45.7109ZM29.5391 48.2422C29.5391 46.8359 30.582 46.2969 31.8828 46.2148L33.3711 46.1562V45.6406C33.3711 45.2891 33.0781 45.0898 32.6445 45.0898C32.1875 45.0898 31.8945 45.2891 31.8359 45.6875H29.7852C29.8672 44.5273 30.8047 43.5547 32.6797 43.5547C34.4492 43.5547 35.5859 44.4219 35.5859 45.6523V50H33.5117V49.1094H33.4648C33.0898 49.8008 32.457 50.1055 31.6133 50.1055C30.3945 50.1055 29.5391 49.5078 29.5391 48.2422ZM31.625 48.1133C31.625 48.4883 31.918 48.6875 32.3281 48.6875C32.8789 48.6875 33.3945 48.3359 33.3828 47.7383V47.3984C33.1602 47.4043 32.5742 47.4277 32.2812 47.457C31.8828 47.5039 31.625 47.7734 31.625 48.1133ZM39.7461 52.5195C37.8477 52.5195 36.7461 51.6523 36.6523 50.4336H38.7969C38.8672 50.8438 39.2656 51.0195 39.8047 51.0195C40.4258 51.0195 40.8711 50.7617 40.8711 49.9883V48.8984H40.8125C40.5664 49.5312 39.8984 49.918 39.0195 49.918C37.6484 49.918 36.5 49.0039 36.5 46.8125C36.5 44.5273 37.7188 43.5547 38.9961 43.5547C39.957 43.5547 40.543 44.1055 40.7891 44.7383H40.8477V43.6367H43.0625V50C43.0625 51.6172 41.7383 52.5195 39.7461 52.5195ZM39.8164 48.3359C40.4844 48.3359 40.8828 47.7734 40.8828 46.8125C40.8828 45.8516 40.4844 45.2656 39.8164 45.2656C39.1602 45.2656 38.7852 45.8516 38.7852 46.8125C38.7852 47.7852 39.1602 48.3359 39.8164 48.3359ZM47.2695 50.1172C45.2422 50.1172 44 48.8867 44 46.8359C44 44.8672 45.2539 43.5547 47.2227 43.5547C49.1094 43.5547 50.3633 44.7734 50.3633 46.8125V47.3398H46.1914V47.4219C46.1914 48.0781 46.6133 48.5469 47.3164 48.5469C47.7969 48.5469 48.1836 48.3359 48.3242 47.9727H50.3516C50.1289 49.2852 49.0039 50.1172 47.2695 50.1172ZM46.1914 46.0977H48.3125C48.3008 45.5234 47.8555 45.125 47.2695 45.125C46.6777 45.125 46.209 45.5293 46.1914 46.0977Z" fill="#302A28"/>
</svg>
