<svg width="73" height="72" viewBox="0 0 73 72" fill="none" xmlns="http://www.w3.org/2000/svg">
<g clip-path="url(#clip0_806_8425)">
<rect x="0.599609" width="72" height="72" rx="14.72" fill="#302A28"/>
<path d="M41.7675 23.8209L41.6281 23.3407L41.6276 23.3409L18.4933 30.0821C17.5945 30.344 17.1026 31.2938 17.3625 32.1859L22.0046 48.1165C22.2645 49.0085 23.1897 49.5454 24.0885 49.2835L47.2228 42.5423L47.083 42.0622C47.2228 42.5423 47.2231 42.5422 47.2233 42.5421L47.2238 42.542L47.2249 42.5417L47.2274 42.5409L47.2336 42.539L47.251 42.5335C47.2646 42.529 47.2824 42.523 47.3037 42.5151C47.3461 42.4995 47.4032 42.4765 47.4692 42.4451C47.599 42.3832 47.7751 42.2827 47.9426 42.1305C48.0425 42.0397 48.1424 41.9275 48.2267 41.7918C48.3707 41.861 48.5151 41.9019 48.6482 41.9249C48.8712 41.9633 49.0737 41.9534 49.2165 41.9359C49.2891 41.927 49.3496 41.9157 49.3937 41.9061C49.4159 41.9013 49.4342 41.8968 49.4481 41.8933L49.4657 41.8886L49.472 41.8869L49.4744 41.8862L49.4755 41.8858L49.476 41.8857C49.4763 41.8856 49.4765 41.8856 49.3366 41.4055L49.4765 41.8856L53.5162 40.7084C54.415 40.4465 54.9069 39.4967 54.647 38.6046L50.0049 22.674C49.7449 21.782 48.8198 21.2451 47.921 21.507L43.8813 22.6842L43.8809 22.6843C43.3944 22.8265 43.1008 23.1487 42.9277 23.4613C42.7508 23.368 42.5672 23.3167 42.398 23.2931C42.1894 23.2641 42.0019 23.2756 41.8694 23.293C41.8021 23.3018 41.7461 23.3125 41.7052 23.3215C41.6846 23.326 41.6677 23.3302 41.6547 23.3335L41.6383 23.3379L41.6324 23.3395L41.63 23.3402L41.629 23.3405L41.6285 23.3406C41.6283 23.3407 41.6281 23.3407 41.7675 23.8209Z" fill="#FFFBEE" stroke="#302A28"/>
<path d="M26.9115 39.6583C26.0911 39.8974 25.4445 39.5111 25.2164 38.7282C24.9883 37.9453 25.3261 37.2722 26.1465 37.0331C26.8825 36.8187 27.4742 37.104 27.6748 37.7575L26.8498 37.9979C26.7485 37.7376 26.5608 37.6346 26.3545 37.6947C26.1014 37.7685 25.9941 38.0286 26.1184 38.4552C26.2441 38.8865 26.4757 39.0529 26.7288 38.9792C26.9351 38.9191 27.0381 38.7314 26.9823 38.4527L27.8073 38.2122C27.9872 38.882 27.6568 39.4411 26.9115 39.6583ZM30.5882 38.5869C29.7679 38.826 29.1213 38.4397 28.8932 37.6568C28.665 36.8739 29.0029 36.2008 29.8233 35.9617C30.6436 35.7227 31.2855 36.1103 31.5137 36.8932C31.7418 37.6761 31.4086 38.3479 30.5882 38.5869ZM30.4017 37.9293C30.6501 37.8569 30.725 37.5553 30.6075 37.1522C30.4887 36.7443 30.2649 36.5349 30.0165 36.6073C29.7586 36.6824 29.6777 36.9806 29.7965 37.3885C29.914 37.7916 30.1438 38.0044 30.4017 37.9293ZM34.4526 36.2046L34.0346 34.7702L34.9206 34.512L35.6624 37.0575L34.8233 37.302L34.6826 36.8191L34.6544 36.8273C34.6362 37.1836 34.4015 37.4605 34.0218 37.5711C33.4921 37.7255 33.0258 37.4342 32.8618 36.8716L32.3892 35.2496L33.2752 34.9915L33.6946 36.4306C33.7697 36.6885 33.9521 36.8082 34.1912 36.7386C34.4209 36.6716 34.5352 36.4705 34.4526 36.2046ZM37.2833 37.6227L36.2629 34.1209L37.1395 33.8654L37.2679 34.3061L37.2913 34.2992C37.316 34.0174 37.4862 33.7288 37.8706 33.6168C38.3816 33.4679 38.9825 33.7149 39.2502 34.6337C39.5057 35.5103 39.1706 36.0708 38.6221 36.2306C38.2564 36.3372 37.96 36.21 37.7831 35.9869L37.769 35.991L38.1693 37.3645L37.2833 37.6227ZM37.5003 35.1386C37.6123 35.523 37.838 35.7217 38.1053 35.6438C38.3678 35.5673 38.4528 35.2831 38.3394 34.894C38.2274 34.5096 38.0044 34.3203 37.7419 34.3968C37.4747 34.4747 37.3883 34.7542 37.5003 35.1386ZM42.1061 35.2307C41.2857 35.4697 40.6391 35.0834 40.411 34.3006C40.1829 33.5177 40.5207 32.8445 41.3411 32.6055C42.1615 32.3664 42.8034 32.7541 43.0315 33.537C43.2596 34.3198 42.9264 34.9916 42.1061 35.2307ZM41.9195 34.573C42.168 34.5006 42.2429 34.1991 42.1254 33.7959C42.0065 33.3881 41.7828 33.1786 41.5343 33.251C41.2765 33.3262 41.1955 33.6244 41.3144 34.0322C41.4319 34.4354 41.6617 34.6481 41.9195 34.573ZM45.1154 32.7415L45.5348 34.1807L44.6488 34.4389L43.907 31.8934L44.7462 31.6489L44.8855 32.127L44.9136 32.1188C44.9332 31.7673 45.1679 31.4904 45.5429 31.3811C46.082 31.224 46.5483 31.5153 46.7076 32.0792L47.1802 33.7012L46.2942 33.9594L45.8749 32.5202C45.803 32.2564 45.6173 32.1426 45.3783 32.2123C45.1439 32.2806 45.0389 32.479 45.1154 32.7415Z" fill="#302A28"/>
<path d="M38.5976 1.17246L38.4581 0.6923L38.4577 0.692424L15.3233 7.43367C14.4246 7.69557 13.9326 8.64541 14.1926 9.53743L18.8347 25.468C19.0946 26.3601 20.0198 26.897 20.9185 26.6351L44.0529 19.8938L43.913 19.4138C44.0529 19.8938 44.0531 19.8938 44.0534 19.8937L44.0539 19.8935L44.055 19.8932L44.0574 19.8925L44.0637 19.8906L44.081 19.8851C44.0947 19.8806 44.1125 19.8745 44.1338 19.8667C44.1762 19.851 44.2332 19.8281 44.2993 19.7966C44.4291 19.7347 44.6052 19.6343 44.7727 19.482C44.8726 19.3912 44.9725 19.2791 45.0567 19.1433C45.2007 19.2126 45.3452 19.2535 45.4783 19.2764C45.7013 19.3149 45.9038 19.305 46.0466 19.2875C46.1192 19.2786 46.1796 19.2672 46.2238 19.2576C46.2459 19.2528 46.2642 19.2484 46.2781 19.2448L46.2958 19.2402L46.302 19.2384L46.3045 19.2377L46.3056 19.2374L46.3061 19.2373C46.3063 19.2372 46.3066 19.2371 46.1667 18.7571L46.3066 19.2371L50.3463 18.06C51.2451 17.7981 51.737 16.8482 51.4771 15.9562L46.835 0.025598C46.575 -0.866417 45.6499 -1.40333 44.7511 -1.14143L40.7114 0.0357178L40.711 0.0358425C40.2245 0.178067 39.9309 0.50027 39.7578 0.812896C39.5808 0.719544 39.3973 0.668221 39.2281 0.644684C39.0194 0.615653 38.832 0.627193 38.6994 0.644569C38.6321 0.65339 38.5762 0.664089 38.5352 0.67309C38.5147 0.677606 38.4977 0.68174 38.4848 0.685069L38.4684 0.689425L38.4625 0.691066L38.4601 0.691736L38.4591 0.692032L38.4586 0.692169C38.4584 0.692235 38.4581 0.6923 38.5976 1.17246Z" stroke="#FFFBEE"/>
<path d="M23.7415 17.0099C22.9212 17.2489 22.2746 16.8626 22.0465 16.0798C21.8183 15.2969 22.1562 14.6237 22.9766 14.3847C23.7126 14.1702 24.3043 14.4555 24.5049 15.1091L23.6798 15.3495C23.5785 15.0891 23.3909 14.9862 23.1846 15.0463C22.9315 15.12 22.8242 15.3802 22.9485 15.8067C23.0742 16.238 23.3058 16.4045 23.5589 16.3307C23.7652 16.2706 23.8681 16.083 23.8124 15.8042L24.6374 15.5638C24.8173 16.2336 24.4869 16.7927 23.7415 17.0099ZM27.4183 15.9385C26.5979 16.1775 25.9514 15.7912 25.7232 15.0084C25.4951 14.2255 25.833 13.5523 26.6533 13.3133C27.4737 13.0742 28.1156 13.4619 28.3437 14.2448C28.5719 15.0276 28.2387 15.6994 27.4183 15.9385ZM27.2318 15.2808C27.4802 15.2084 27.5551 14.9069 27.4376 14.5037C27.3188 14.0959 27.095 13.8865 26.8465 13.9588C26.5887 14.034 26.5078 14.3322 26.6266 14.74C26.7441 15.1432 26.9739 15.356 27.2318 15.2808ZM31.2827 13.5562L30.8647 12.1217L31.7507 11.8635L32.4925 14.409L31.6533 14.6536L31.5126 14.1707L31.4845 14.1789C31.4663 14.5352 31.2316 14.812 30.8519 14.9227C30.3222 15.0771 29.8558 14.7857 29.6919 14.2232L29.2193 12.6012L30.1053 12.343L30.5246 13.7822C30.5998 14.04 30.7822 14.1598 31.0212 14.0901C31.251 14.0232 31.3653 13.822 31.2827 13.5562ZM34.1133 14.9742L33.0929 11.4724L33.9696 11.217L34.098 11.6576L34.1214 11.6508C34.1461 11.369 34.3163 11.0804 34.7007 10.9683C35.2117 10.8194 35.8126 11.0665 36.0803 11.9853C36.3358 12.8619 36.0007 13.4224 35.4522 13.5822C35.0865 13.6887 34.7901 13.5615 34.6132 13.3384L34.5991 13.3425L34.9994 14.7161L34.1133 14.9742ZM34.3304 12.4901C34.4424 12.8745 34.6681 13.0732 34.9353 12.9954C35.1978 12.9189 35.2829 12.6347 35.1695 12.2456C35.0575 11.8612 34.8345 11.6719 34.572 11.7484C34.3048 11.8262 34.2184 12.1057 34.3304 12.4901ZM38.9362 12.5822C38.1158 12.8213 37.4692 12.435 37.2411 11.6521C37.0129 10.8693 37.3508 10.1961 38.1712 9.95705C38.9916 9.718 39.6335 10.1057 39.8616 10.8885C40.0897 11.6714 39.7565 12.3432 38.9362 12.5822ZM38.7496 11.9246C38.9981 11.8522 39.0729 11.5506 38.9555 11.1475C38.8366 10.7396 38.6128 10.5302 38.3644 10.6026C38.1065 10.6777 38.0256 10.976 38.1445 11.3838C38.2619 11.787 38.4918 11.9997 38.7496 11.9246ZM41.9455 10.0931L42.3649 11.5323L41.4789 11.7904L40.7371 9.24495L41.5762 9.00043L41.7156 9.47859L41.7437 9.4704C41.7633 9.11884 41.998 8.84195 42.373 8.73266C42.9121 8.57557 43.3784 8.8669 43.5377 9.43081L44.0103 11.0528L43.1243 11.311L42.7049 9.87181C42.6331 9.60793 42.4474 9.49421 42.2083 9.56387C41.9739 9.63217 41.869 9.83059 41.9455 10.0931Z" fill="#FFFBEE"/>
<path d="M76.4824 -1.77285L76.3429 -2.25301L76.3425 -2.25289L53.2081 4.48836C52.3093 4.75026 51.8174 5.7001 52.0773 6.59212L56.7194 22.5227C56.9794 23.4147 57.9045 23.9517 58.8033 23.6898L81.9377 16.9485L81.7978 16.4685C81.9377 16.9485 81.9379 16.9484 81.9381 16.9484L81.9386 16.9482L81.9397 16.9479L81.9422 16.9472L81.9484 16.9453L81.9658 16.9398C81.9794 16.9353 81.9973 16.9292 82.0185 16.9214C82.0609 16.9057 82.118 16.8828 82.184 16.8513C82.3139 16.7894 82.49 16.689 82.6575 16.5367C82.7574 16.4459 82.8572 16.3338 82.9415 16.198C83.0855 16.2673 83.23 16.3082 83.363 16.3311C83.5861 16.3696 83.7886 16.3597 83.9313 16.3422C84.0039 16.3332 84.0644 16.3219 84.1086 16.3123C84.1307 16.3075 84.149 16.3031 84.1629 16.2995L84.1805 16.2949L84.1868 16.2931L84.1893 16.2924L84.1904 16.2921L84.1909 16.2919C84.1911 16.2919 84.1913 16.2918 84.0515 15.8118L84.1913 16.2918L88.2311 15.1147C89.1298 14.8528 89.6217 13.9029 89.3618 13.0109L84.7197 -2.91971C84.4598 -3.81173 83.5346 -4.34865 82.6359 -4.08675L78.5961 -2.90959L78.5957 -2.90947C78.1092 -2.76725 77.8156 -2.44504 77.6425 -2.13242C77.4656 -2.22577 77.2821 -2.27709 77.1129 -2.30063C76.9042 -2.32966 76.7168 -2.31812 76.5842 -2.30074C76.5169 -2.29192 76.461 -2.28122 76.42 -2.27222C76.3995 -2.26771 76.3825 -2.26357 76.3695 -2.26024L76.3531 -2.25589L76.3472 -2.25425L76.3449 -2.25358L76.3438 -2.25328L76.3434 -2.25314C76.3431 -2.25308 76.3429 -2.25301 76.4824 -1.77285Z" stroke="#FFFBEE"/>
<path d="M61.6263 14.0646C60.8059 14.3036 60.1594 13.9173 59.9312 13.1345C59.7031 12.3516 60.041 11.6784 60.8613 11.4394C61.5973 11.2249 62.1891 11.5102 62.3897 12.1638L61.5646 12.4042C61.4633 12.1438 61.2756 12.0408 61.0694 12.1009C60.8162 12.1747 60.7089 12.4348 60.8332 12.8614C60.9589 13.2927 61.1905 13.4592 61.4437 13.3854C61.6499 13.3253 61.7529 13.1376 61.6971 12.8589L62.5222 12.6185C62.7021 13.2883 62.3717 13.8474 61.6263 14.0646ZM65.3031 12.9932C64.4827 13.2322 63.8361 12.8459 63.608 12.0631C63.3799 11.2802 63.7177 10.607 64.5381 10.368C65.3585 10.1289 66.0004 10.5166 66.2285 11.2995C66.4566 12.0823 66.1234 12.7541 65.3031 12.9932ZM65.1165 12.3355C65.365 12.2631 65.4399 11.9616 65.3224 11.5584C65.2035 11.1506 64.9798 10.9411 64.7313 11.0135C64.4735 11.0887 64.3925 11.3869 64.5114 11.7947C64.6289 12.1979 64.8587 12.4106 65.1165 12.3355ZM69.1675 10.6109L68.7495 9.17641L69.6355 8.91823L70.3772 11.4637L69.5381 11.7082L69.3974 11.2254L69.3693 11.2336C69.351 11.5898 69.1164 11.8667 68.7367 11.9774C68.2069 12.1317 67.7406 11.8404 67.5767 11.2779L67.104 9.65588L67.99 9.3977L68.4094 10.8369C68.4845 11.0947 68.6669 11.2145 68.906 11.1448C69.1357 11.0779 69.25 10.8767 69.1675 10.6109ZM71.9981 12.0289L70.9777 8.52712L71.8543 8.27167L71.9827 8.71233L72.0062 8.7055C72.0309 8.42367 72.201 8.13504 72.5854 8.02303C73.0964 7.87413 73.6973 8.12116 73.9651 9.03997C74.2205 9.9166 73.8854 10.4771 73.3369 10.6369C72.9713 10.7434 72.6748 10.6162 72.4979 10.3931L72.4839 10.3972L72.8841 11.7708L71.9981 12.0289ZM72.2151 9.54481C72.3272 9.92921 72.5529 10.1279 72.8201 10.05C73.0826 9.97354 73.1676 9.68938 73.0543 9.30029C72.9423 8.91589 72.7193 8.72657 72.4567 8.80307C72.1895 8.88093 72.1031 9.16041 72.2151 9.54481ZM76.8209 9.63693C76.0005 9.87598 75.354 9.48969 75.1258 8.70682C74.8977 7.92395 75.2356 7.25079 76.0559 7.01174C76.8763 6.77269 77.5182 7.16035 77.7463 7.94322C77.9745 8.72609 77.6413 9.39788 76.8209 9.63693ZM76.6344 8.97927C76.8828 8.90687 76.9577 8.60532 76.8402 8.20217C76.7214 7.79433 76.4976 7.5849 76.2491 7.65729C75.9913 7.73243 75.9104 8.03065 76.0292 8.43849C76.1467 8.84164 76.3765 9.0544 76.6344 8.97927ZM79.8303 7.14779L80.2496 8.58696L79.3636 8.84514L78.6219 6.29964L79.461 6.05512L79.6003 6.53328L79.6285 6.52509C79.6481 6.17353 79.8827 5.89663 80.2578 5.78735C80.7969 5.63026 81.2632 5.92159 81.4224 6.4855L81.8951 8.10749L81.0091 8.36567L80.5897 6.9265C80.5179 6.66261 80.3322 6.54889 80.0931 6.61856C79.8587 6.68686 79.7538 6.88527 79.8303 7.14779Z" fill="#FFFBEE"/>
<path d="M78.3417 22.1568L78.2023 21.6767L78.2019 21.6768L55.0675 28.418C54.1687 28.6799 53.6768 29.6298 53.9367 30.5218L58.5788 46.4524C58.8387 47.3444 59.7639 47.8813 60.6627 47.6194L83.7971 40.8782L83.6572 40.3982C83.7971 40.8782 83.7973 40.8781 83.7975 40.8781L83.798 40.8779L83.7991 40.8776L83.8016 40.8769L83.8078 40.875L83.8252 40.8694C83.8388 40.865 83.8566 40.8589 83.8779 40.851C83.9203 40.8354 83.9774 40.8125 84.0434 40.781C84.1732 40.7191 84.3493 40.6187 84.5168 40.4664C84.6167 40.3756 84.7166 40.2635 84.8009 40.1277C84.9449 40.197 85.0894 40.2379 85.2224 40.2608C85.4455 40.2993 85.6479 40.2894 85.7907 40.2718C85.8633 40.2629 85.9238 40.2516 85.9679 40.242C85.9901 40.2372 86.0084 40.2328 86.0223 40.2292L86.0399 40.2245L86.0462 40.2228L86.0487 40.2221L86.0497 40.2218L86.0502 40.2216C86.0505 40.2216 86.0507 40.2215 85.9108 39.7415L86.0507 40.2215L90.0904 39.0443C90.9892 38.7824 91.4811 37.8326 91.2212 36.9406L86.5791 21.01C86.3192 20.118 85.394 19.581 84.4952 19.8429L80.4555 21.0201L80.4551 21.0202C79.9686 21.1624 79.675 21.4846 79.5019 21.7973C79.325 21.7039 79.1414 21.6526 78.9722 21.6291C78.7636 21.6 78.5762 21.6116 78.4436 21.6289C78.3763 21.6378 78.3203 21.6485 78.2794 21.6575C78.2588 21.662 78.2419 21.6661 78.2289 21.6694L78.2125 21.6738L78.2066 21.6754L78.2042 21.6761L78.2032 21.6764L78.2027 21.6765C78.2025 21.6766 78.2023 21.6767 78.3417 22.1568Z" stroke="#FFFBEE"/>
<path d="M63.4857 37.9943C62.6653 38.2333 62.0187 37.847 61.7906 37.0641C61.5625 36.2813 61.9003 35.6081 62.7207 35.3691C63.4567 35.1546 64.0484 35.4399 64.249 36.0935L63.424 36.3339C63.3227 36.0735 63.135 35.9705 62.9288 36.0306C62.6756 36.1044 62.5683 36.3645 62.6926 36.7911C62.8183 37.2224 63.0499 37.3889 63.303 37.3151C63.5093 37.255 63.6123 37.0673 63.5565 36.7886L64.3816 36.5482C64.5615 37.218 64.231 37.7771 63.4857 37.9943ZM67.1625 36.9229C66.3421 37.1619 65.6955 36.7756 65.4674 35.9927C65.2392 35.2099 65.5771 34.5367 66.3975 34.2977C67.2179 34.0586 67.8598 34.4463 68.0879 35.2291C68.316 36.012 67.9828 36.6838 67.1625 36.9229ZM66.9759 36.2652C67.2244 36.1928 67.2992 35.8913 67.1818 35.4881C67.0629 35.0803 66.8391 34.8708 66.5907 34.9432C66.3328 35.0184 66.2519 35.3166 66.3708 35.7244C66.4882 36.1276 66.7181 36.3403 66.9759 36.2652ZM71.0269 34.5406L70.6089 33.1061L71.4949 32.8479L72.2366 35.3934L71.3975 35.6379L71.2568 35.1551L71.2286 35.1633C71.2104 35.5195 70.9758 35.7964 70.596 35.9071C70.0663 36.0614 69.6 35.7701 69.4361 35.2076L68.9634 33.5856L69.8494 33.3274L70.2688 34.7666C70.3439 35.0244 70.5263 35.1442 70.7654 35.0745C70.9951 35.0076 71.1094 34.8064 71.0269 34.5406ZM73.8575 35.9586L72.8371 32.4568L73.7137 32.2014L73.8421 32.642L73.8655 32.6352C73.8902 32.3534 74.0604 32.0647 74.4448 31.9527C74.9558 31.8038 75.5567 32.0508 75.8244 32.9697C76.0799 33.8463 75.7448 34.4067 75.1963 34.5666C74.8307 34.6731 74.5342 34.5459 74.3573 34.3228L74.3432 34.3269L74.7435 35.7004L73.8575 35.9586ZM74.0745 33.4745C74.1865 33.8589 74.4123 34.0576 74.6795 33.9797C74.942 33.9032 75.027 33.6191 74.9136 33.23C74.8016 32.8456 74.5786 32.6563 74.3161 32.7328C74.0489 32.8106 73.9625 33.0901 74.0745 33.4745ZM78.6803 33.5666C77.8599 33.8057 77.2133 33.4194 76.9852 32.6365C76.7571 31.8536 77.095 31.1805 77.9153 30.9414C78.7357 30.7024 79.3776 31.09 79.6057 31.8729C79.8338 32.6558 79.5007 33.3276 78.6803 33.5666ZM78.4937 32.909C78.7422 32.8366 78.8171 32.535 78.6996 32.1319C78.5808 31.724 78.357 31.5146 78.1085 31.587C77.8507 31.6621 77.7698 31.9603 77.8886 32.3682C78.0061 32.7713 78.2359 32.9841 78.4937 32.909ZM81.6896 31.0775L82.109 32.5166L81.223 32.7748L80.4813 30.2293L81.3204 29.9848L81.4597 30.463L81.4878 30.4548C81.5075 30.1032 81.7421 29.8263 82.1171 29.717C82.6562 29.5599 83.1226 29.8513 83.2818 30.4152L83.7544 32.0372L82.8684 32.2954L82.4491 30.8562C82.3773 30.5923 82.1915 30.4786 81.9525 30.5482C81.7181 30.6165 81.6131 30.815 81.6896 31.0775Z" fill="#FFFBEE"/>
<path d="M0.710878 4.11387L0.571425 3.63371L0.570999 3.63383L-22.5634 10.3751C-23.4622 10.637 -23.9541 11.5868 -23.6941 12.4788L-19.052 28.4094C-18.7921 29.3015 -17.867 29.8384 -16.9682 29.5765L6.16619 22.8352L6.02631 22.3552C6.16619 22.8352 6.16643 22.8352 6.16667 22.8351L6.16716 22.8349L6.16824 22.8346L6.17073 22.8339L6.17696 22.832L6.19431 22.8265C6.20796 22.822 6.22577 22.8159 6.24705 22.8081C6.28945 22.7924 6.34653 22.7695 6.41255 22.738C6.54239 22.6761 6.71848 22.5757 6.88597 22.4234C6.98587 22.3326 7.08574 22.2205 7.17001 22.0847C7.31402 22.154 7.4585 22.1949 7.59155 22.2178C7.8146 22.2563 8.01708 22.2464 8.15984 22.2289C8.23244 22.22 8.29291 22.2086 8.33707 22.1991C8.35923 22.1942 8.37752 22.1898 8.39143 22.1862L8.40903 22.1816L8.41531 22.1798L8.4178 22.1791L8.41888 22.1788L8.41938 22.1787C8.41962 22.1786 8.41985 22.1785 8.27997 21.6985L8.41985 22.1785L12.4596 21.0014C13.3583 20.7395 13.8503 19.7896 13.5903 18.8976L8.94823 2.967C8.6883 2.07499 7.76315 1.53807 6.86437 1.79997L2.82466 2.97712L2.82423 2.97725C2.33776 3.11947 2.04414 3.44168 1.87104 3.7543C1.69413 3.66095 1.51058 3.60963 1.34139 3.58609C1.13271 3.55706 0.945305 3.5686 0.812725 3.58598C0.745418 3.5948 0.689468 3.60549 0.648525 3.6145C0.627984 3.61901 0.611016 3.62315 0.598065 3.62647L0.581636 3.63083L0.575737 3.63247L0.573381 3.63314L0.572352 3.63344L0.571876 3.63358C0.571649 3.63364 0.571425 3.63371 0.710878 4.11387Z" stroke="#FFFBEE"/>
<path d="M-14.1452 19.9513C-14.9655 20.1903 -15.6121 19.804 -15.8403 19.0212C-16.0684 18.2383 -15.7305 17.5651 -14.9101 17.3261C-14.1742 17.1116 -13.5824 17.3969 -13.3818 18.0505L-14.2069 18.2909C-14.3082 18.0305 -14.4958 17.9276 -14.7021 17.9877C-14.9553 18.0614 -15.0625 18.3216 -14.9382 18.7482C-14.8126 19.1794 -14.581 19.3459 -14.3278 19.2721C-14.1216 19.212 -14.0186 19.0244 -14.0744 18.7456L-13.2493 18.5052C-13.0694 19.175 -13.3998 19.7341 -14.1452 19.9513ZM-10.4684 18.8799C-11.2888 19.1189 -11.9354 18.7326 -12.1635 17.9498C-12.3916 17.1669 -12.0537 16.4938 -11.2334 16.2547C-10.413 16.0156 -9.77111 16.4033 -9.54298 17.1862C-9.31486 17.969 -9.64804 18.6408 -10.4684 18.8799ZM-10.655 18.2222C-10.4065 18.1498 -10.3316 17.8483 -10.4491 17.4451C-10.5679 17.0373 -10.7917 16.8279 -11.0402 16.9003C-11.298 16.9754 -11.3789 17.2736 -11.2601 17.6815C-11.1426 18.0846 -10.9128 18.2974 -10.655 18.2222ZM-6.60401 16.4976L-7.02201 15.0631L-6.13601 14.805L-5.39426 17.3504L-6.23338 17.595L-6.37408 17.1121L-6.40221 17.1203C-6.42046 17.4766 -6.6551 17.7535 -7.03482 17.8641C-7.56454 18.0185 -8.03088 17.7271 -8.1948 17.1646L-8.66744 15.5426L-7.78144 15.2844L-7.36207 16.7236C-7.28694 16.9814 -7.10455 17.1012 -6.86547 17.0315C-6.63576 16.9646 -6.52146 16.7634 -6.60401 16.4976ZM-3.77337 17.9157L-4.79378 14.4138L-3.91716 14.1584L-3.78875 14.599L-3.76531 14.5922C-3.74063 14.3104 -3.57044 14.0218 -3.18604 13.9097C-2.67506 13.7608 -2.07415 14.0079 -1.80641 14.9267C-1.55097 15.8033 -1.88607 16.3638 -2.43455 16.5236C-2.8002 16.6302 -3.09665 16.5029 -3.27355 16.2798L-3.28761 16.2839L-2.88737 17.6575L-3.77337 17.9157ZM-3.55634 15.4315C-3.44433 15.8159 -3.2186 16.0146 -2.95139 15.9368C-2.68887 15.8603 -2.60384 15.5761 -2.71722 15.187C-2.82923 14.8026 -3.05223 14.6133 -3.31475 14.6898C-3.58196 14.7677 -3.66836 15.0471 -3.55634 15.4315ZM1.04943 15.5236C0.22906 15.7627 -0.417523 15.3764 -0.645647 14.5935C-0.873772 13.8107 -0.535908 13.1375 0.284464 12.8985C1.10484 12.6594 1.74673 13.0471 1.97486 13.8299C2.20298 14.6128 1.8698 15.2846 1.04943 15.5236ZM0.862878 14.866C1.11133 14.7936 1.18621 14.492 1.06874 14.0889C0.949894 13.681 0.726118 13.4716 0.477662 13.544C0.219831 13.6191 0.138897 13.9174 0.25774 14.3252C0.375217 14.7284 0.605047 14.9411 0.862878 14.866ZM4.05878 13.0345L4.47815 14.4737L3.59215 14.7319L2.8504 12.1864L3.68952 11.9418L3.82886 12.42L3.85698 12.4118C3.8766 12.0602 4.11124 11.7834 4.48627 11.6741C5.02537 11.517 5.49171 11.8083 5.65094 12.3722L6.12358 13.9942L5.23758 14.2524L4.81821 12.8132C4.7464 12.5493 4.56069 12.4356 4.32161 12.5053C4.08722 12.5736 3.98228 12.772 4.05878 13.0345Z" fill="#FFFBEE"/>
<path d="M2.57025 28.0436L2.4308 27.5634L2.43037 27.5635L-20.704 34.3048C-21.6028 34.5667 -22.0947 35.5165 -21.8348 36.4085L-17.1927 52.3391C-16.9327 53.2311 -16.0076 53.7681 -15.1088 53.5062L8.02557 46.7649L7.88569 46.2849C8.02557 46.7649 8.0258 46.7649 8.02604 46.7648L8.02654 46.7646L8.02762 46.7643L8.0301 46.7636L8.03633 46.7617L8.05369 46.7562C8.06734 46.7517 8.08515 46.7456 8.10643 46.7378C8.14882 46.7221 8.2059 46.6992 8.27192 46.6677C8.40176 46.6058 8.57786 46.5054 8.74534 46.3531C8.84525 46.2623 8.94512 46.1502 9.02939 46.0144C9.1734 46.0837 9.31787 46.1246 9.45092 46.1475C9.67397 46.186 9.87645 46.1761 10.0192 46.1586C10.0918 46.1496 10.1523 46.1383 10.1964 46.1287C10.2186 46.1239 10.2369 46.1195 10.2508 46.1159L10.2684 46.1113L10.2747 46.1095L10.2772 46.1088L10.2783 46.1085L10.2788 46.1084C10.279 46.1083 10.2792 46.1082 10.1393 45.6282L10.2792 46.1082L14.3189 44.9311C15.2177 44.6692 15.7096 43.7193 15.4497 42.8273L10.8076 26.8967C10.5477 26.0047 9.62253 25.4678 8.72375 25.7297L4.68404 26.9068L4.68361 26.9069C4.19714 27.0492 3.90352 27.3714 3.73041 27.684C3.5535 27.5906 3.36995 27.5393 3.20076 27.5158C2.99209 27.4867 2.80468 27.4983 2.6721 27.5157C2.60479 27.5245 2.54884 27.5352 2.5079 27.5442C2.48736 27.5487 2.47039 27.5528 2.45744 27.5562L2.44101 27.5605L2.43511 27.5622L2.43276 27.5628L2.43173 27.5631L2.43125 27.5633C2.43102 27.5633 2.4308 27.5634 2.57025 28.0436Z" stroke="#FFFBEE"/>
<path d="M-12.2858 43.881C-13.1062 44.12 -13.7528 43.7337 -13.9809 42.9509C-14.209 42.168 -13.8711 41.4948 -13.0508 41.2558C-12.3148 41.0413 -11.7231 41.3266 -11.5224 41.9802L-12.3475 42.2206C-12.4488 41.9602 -12.6365 41.8572 -12.8427 41.9174C-13.0959 41.9911 -13.2032 42.2512 -13.0789 42.6778C-12.9532 43.1091 -12.7216 43.2756 -12.4684 43.2018C-12.2622 43.1417 -12.1592 42.954 -12.215 42.6753L-11.3899 42.4349C-11.21 43.1047 -11.5404 43.6638 -12.2858 43.881ZM-8.60903 42.8096C-9.42941 43.0486 -10.076 42.6623 -10.3041 41.8795C-10.5322 41.0966 -10.1944 40.4234 -9.374 40.1844C-8.55363 39.9453 -7.91173 40.333 -7.68361 41.1159C-7.45549 41.8987 -7.78866 42.5705 -8.60903 42.8096ZM-8.79559 42.1519C-8.54713 42.0795 -8.47225 41.778 -8.58973 41.3748C-8.70857 40.967 -8.93235 40.7575 -9.1808 40.8299C-9.43864 40.9051 -9.51957 41.2033 -9.40073 41.6111C-9.28325 42.0143 -9.05342 42.227 -8.79559 42.1519ZM-4.74463 40.4273L-5.16263 38.9928L-4.27663 38.7346L-3.53488 41.2801L-4.37401 41.5247L-4.51471 41.0418L-4.54284 41.05C-4.56109 41.4062 -4.79573 41.6831 -5.17544 41.7938C-5.70517 41.9481 -6.1715 41.6568 -6.33542 41.0943L-6.80807 39.4723L-5.92206 39.2141L-5.5027 40.6533C-5.42757 40.9111 -5.24517 41.0309 -5.00609 40.9612C-4.77639 40.8943 -4.66208 40.6931 -4.74463 40.4273ZM-1.914 41.8453L-2.93441 38.3435L-2.05778 38.0881L-1.92938 38.5287L-1.90594 38.5219C-1.88126 38.2401 -1.71107 37.9514 -1.32666 37.8394C-0.81569 37.6905 -0.214775 37.9376 0.0529639 38.8564C0.308409 39.733 -0.0266927 40.2935 -0.57517 40.4533C-0.940822 40.5598 -1.23727 40.4326 -1.41417 40.2095L-1.42824 40.2136L-1.02799 41.5872L-1.914 41.8453ZM-1.69697 39.3612C-1.58495 39.7456 -1.35922 39.9443 -1.09202 39.8664C-0.829496 39.7899 -0.744464 39.5058 -0.857844 39.1167C-0.969857 38.7323 -1.19286 38.543 -1.45538 38.6195C-1.72258 38.6973 -1.80898 38.9768 -1.69697 39.3612ZM2.90881 39.4533C2.08843 39.6924 1.44185 39.3061 1.21373 38.5232C0.985603 37.7404 1.32347 37.0672 2.14384 36.8281C2.96421 36.5891 3.60611 36.9768 3.83423 37.7596C4.06236 38.5425 3.72918 39.2143 2.90881 39.4533ZM2.72225 38.7957C2.97071 38.7233 3.04559 38.4217 2.92811 38.0186C2.80927 37.6107 2.58549 37.4013 2.33704 37.4737C2.07921 37.5488 1.99827 37.8471 2.11712 38.2549C2.23459 38.658 2.46442 38.8708 2.72225 38.7957ZM5.91816 36.9642L6.33752 38.4034L5.45152 38.6615L4.70978 36.116L5.5489 35.8715L5.68823 36.3497L5.71636 36.3415C5.73598 35.9899 5.97062 35.713 6.34565 35.6038C6.88475 35.4467 7.35108 35.738 7.51031 36.3019L7.98296 37.9239L7.09695 38.1821L6.67759 36.7429C6.60578 36.479 6.42006 36.3653 6.18098 36.435C5.94659 36.5033 5.84166 36.7017 5.91816 36.9642Z" fill="#FFFBEE"/>
<path d="M42.3163 49.0279L42.1769 48.5478L42.1765 48.5479L19.0421 55.2891C18.1433 55.551 17.6514 56.5009 17.9113 57.3929L22.5534 73.3235C22.8133 74.2155 23.7385 74.7524 24.6373 74.4905L47.7717 67.7493L47.6318 67.2693C47.7717 67.7493 47.7719 67.7492 47.7721 67.7492L47.7726 67.749L47.7737 67.7487L47.7762 67.748L47.7824 67.7461L47.7998 67.7405C47.8134 67.7361 47.8312 67.73 47.8525 67.7221C47.8949 67.7065 47.952 67.6836 48.018 67.6521C48.1479 67.5902 48.324 67.4898 48.4914 67.3375C48.5913 67.2467 48.6912 67.1346 48.7755 66.9988C48.9195 67.068 49.064 67.109 49.197 67.1319C49.4201 67.1704 49.6225 67.1605 49.7653 67.1429C49.8379 67.134 49.8984 67.1227 49.9425 67.1131C49.9647 67.1083 49.983 67.1039 49.9969 67.1003L50.0145 67.0956L50.0208 67.0939L50.0233 67.0932L50.0244 67.0929L50.0249 67.0927C50.0251 67.0927 50.0253 67.0926 49.8854 66.6126L50.0253 67.0926L54.065 65.9154C54.9638 65.6535 55.4557 64.7037 55.1958 63.8117L50.5537 47.8811C50.2938 46.9891 49.3686 46.4521 48.4698 46.714L44.4301 47.8912L44.4297 47.8913C43.9432 48.0335 43.6496 48.3557 43.4765 48.6684C43.2996 48.575 43.116 48.5237 42.9469 48.5002C42.7382 48.4711 42.5508 48.4827 42.4182 48.5C42.3509 48.5089 42.2949 48.5196 42.254 48.5286C42.2335 48.5331 42.2165 48.5372 42.2035 48.5405L42.1871 48.5449L42.1812 48.5465L42.1788 48.5472L42.1778 48.5475L42.1773 48.5476C42.1771 48.5477 42.1769 48.5478 42.3163 49.0279Z" stroke="#FFFBEE"/>
<path d="M27.4603 64.8653C26.6399 65.1044 25.9933 64.7181 25.7652 63.9352C25.5371 63.1524 25.875 62.4792 26.6953 62.2402C27.4313 62.0257 28.023 62.311 28.2237 62.9646L27.3986 63.205C27.2973 62.9446 27.1096 62.8416 26.9034 62.9017C26.6502 62.9755 26.5429 63.2356 26.6672 63.6622C26.7929 64.0935 27.0245 64.26 27.2776 64.1862C27.4839 64.1261 27.5869 63.9384 27.5311 63.6597L28.3562 63.4193C28.5361 64.0891 28.2057 64.6481 27.4603 64.8653ZM31.1371 63.794C30.3167 64.033 29.6701 63.6467 29.442 62.8638C29.2139 62.081 29.5517 61.4078 30.3721 61.1688C31.1925 60.9297 31.8344 61.3174 32.0625 62.1002C32.2906 62.8831 31.9574 63.5549 31.1371 63.794ZM30.9505 63.1363C31.199 63.0639 31.2738 62.7623 31.1564 62.3592C31.0375 61.9514 30.8137 61.7419 30.5653 61.8143C30.3075 61.8894 30.2265 62.1877 30.3454 62.5955C30.4628 62.9987 30.6927 63.2114 30.9505 63.1363ZM35.0015 61.4117L34.5835 59.9772L35.4695 59.719L36.2112 62.2645L35.3721 62.509L35.2314 62.0262L35.2033 62.0344C35.185 62.3906 34.9504 62.6675 34.5707 62.7782C34.0409 62.9325 33.5746 62.6412 33.4107 62.0787L32.938 60.4567L33.824 60.1985L34.2434 61.6377C34.3185 61.8955 34.5009 62.0153 34.74 61.9456C34.9697 61.8787 35.084 61.6775 35.0015 61.4117ZM37.8321 62.8297L36.8117 59.3279L37.6883 59.0725L37.8167 59.5131L37.8402 59.5063C37.8648 59.2244 38.035 58.9358 38.4194 58.8238C38.9304 58.6749 39.5313 58.9219 39.7991 59.8408C40.0545 60.7174 39.7194 61.2778 39.1709 61.4377C38.8053 61.5442 38.5088 61.417 38.3319 61.1939L38.3179 61.198L38.7181 62.5715L37.8321 62.8297ZM38.0491 60.3456C38.1611 60.73 38.3869 60.9287 38.6541 60.8508C38.9166 60.7743 39.0016 60.4902 38.8883 60.1011C38.7762 59.7167 38.5532 59.5274 38.2907 59.6039C38.0235 59.6817 37.9371 59.9612 38.0491 60.3456ZM42.6549 60.4377C41.8345 60.6768 41.1879 60.2905 40.9598 59.5076C40.7317 58.7247 41.0696 58.0516 41.8899 57.8125C42.7103 57.5735 43.3522 57.9611 43.5803 58.744C43.8084 59.5269 43.4753 60.1987 42.6549 60.4377ZM42.4683 59.78C42.7168 59.7076 42.7917 59.4061 42.6742 59.003C42.5554 58.5951 42.3316 58.3857 42.0831 58.4581C41.8253 58.5332 41.7444 58.8314 41.8632 59.2393C41.9807 59.6424 42.2105 59.8552 42.4683 59.78ZM45.6643 57.9486L46.0836 59.3877L45.1976 59.6459L44.4559 57.1004L45.295 56.8559L45.4343 57.3341L45.4625 57.3259C45.4821 56.9743 45.7167 56.6974 46.0917 56.5881C46.6308 56.431 47.0972 56.7224 47.2564 57.2863L47.729 58.9083L46.843 59.1664L46.4237 57.7273C46.3519 57.4634 46.1662 57.3497 45.9271 57.4193C45.6927 57.4876 45.5878 57.6861 45.6643 57.9486Z" fill="#FFFBEE"/>
<path d="M80.2011 46.0826L80.0617 45.6025L80.0612 45.6026L56.9269 52.3438C56.0281 52.6057 55.5362 53.5556 55.7961 54.4476L60.4382 70.3782C60.6981 71.2702 61.6233 71.8071 62.522 71.5452L85.6564 64.804L85.5165 64.3239C85.6564 64.804 85.6567 64.8039 85.6569 64.8038L85.6574 64.8037L85.6585 64.8034L85.661 64.8026L85.6672 64.8007L85.6845 64.7952C85.6982 64.7908 85.716 64.7847 85.7373 64.7768C85.7797 64.7612 85.8368 64.7383 85.9028 64.7068C86.0326 64.6449 86.2087 64.5444 86.3762 64.3922C86.4761 64.3014 86.576 64.1893 86.6602 64.0535C86.8043 64.1227 86.9487 64.1637 87.0818 64.1866C87.3048 64.225 87.5073 64.2152 87.6501 64.1976C87.7227 64.1887 87.7831 64.1774 87.8273 64.1678C87.8495 64.163 87.8678 64.1586 87.8817 64.155L87.8993 64.1503L87.9055 64.1486L87.908 64.1479L87.9091 64.1476L87.9096 64.1474C87.9099 64.1473 87.9101 64.1473 87.7702 63.6672L87.9101 64.1473L91.9498 62.9701C92.8486 62.7082 93.3405 61.7584 93.0806 60.8664L88.4385 44.9358C88.1785 44.0437 87.2534 43.5068 86.3546 43.7687L82.3149 44.9459L82.3145 44.946C81.828 45.0882 81.5344 45.4104 81.3613 45.7231C81.1844 45.6297 81.0008 45.5784 80.8316 45.5548C80.6229 45.5258 80.4355 45.5373 80.303 45.5547C80.2357 45.5635 80.1797 45.5742 80.1388 45.5832C80.1182 45.5878 80.1013 45.5919 80.0883 45.5952L80.0719 45.5996L80.066 45.6012L80.0636 45.6019L80.0626 45.6022L80.0621 45.6023C80.0619 45.6024 80.0617 45.6025 80.2011 46.0826Z" stroke="#FFFBEE"/>
<path d="M65.3451 61.92C64.5247 62.1591 63.8781 61.7728 63.65 60.9899C63.4219 60.2071 63.7597 59.5339 64.5801 59.2948C65.3161 59.0804 65.9078 59.3657 66.1084 60.0192L65.2834 60.2597C65.1821 59.9993 64.9944 59.8963 64.7881 59.9564C64.535 60.0302 64.4277 60.2903 64.552 60.7169C64.6777 61.1482 64.9093 61.3147 65.1624 61.2409C65.3687 61.1808 65.4717 60.9931 65.4159 60.7144L66.2409 60.474C66.4208 61.1437 66.0904 61.7028 65.3451 61.92ZM69.0218 60.8486C68.2015 61.0877 67.5549 60.7014 67.3267 59.9185C67.0986 59.1357 67.4365 58.4625 68.2569 58.2234C69.0772 57.9844 69.7191 58.3721 69.9472 59.1549C70.1754 59.9378 69.8422 60.6096 69.0218 60.8486ZM68.8353 60.191C69.0837 60.1186 69.1586 59.817 69.0411 59.4139C68.9223 59.006 68.6985 58.7966 68.4501 58.869C68.1922 58.9441 68.1113 59.2424 68.2301 59.6502C68.3476 60.0534 68.5774 60.2661 68.8353 60.191ZM72.8862 58.4664L72.4682 57.0319L73.3542 56.7737L74.096 59.3192L73.2569 59.5637L73.1162 59.0809L73.088 59.0891C73.0698 59.4453 72.8351 59.7222 72.4554 59.8329C71.9257 59.9872 71.4594 59.6959 71.2954 59.1333L70.8228 57.5113L71.7088 57.2532L72.1282 58.6923C72.2033 58.9502 72.3857 59.0699 72.6248 59.0003C72.8545 58.9333 72.9688 58.7322 72.8862 58.4664ZM75.7169 59.8844L74.6965 56.3826L75.5731 56.1271L75.7015 56.5678L75.7249 56.561C75.7496 56.2791 75.9198 55.9905 76.3042 55.8785C76.8152 55.7296 77.4161 55.9766 77.6838 56.8954C77.9393 57.7721 77.6042 58.3325 77.0557 58.4924C76.69 58.5989 76.3936 58.4717 76.2167 58.2486L76.2026 58.2527L76.6029 59.6262L75.7169 59.8844ZM75.9339 57.4003C76.0459 57.7847 76.2716 57.9834 76.5388 57.9055C76.8014 57.829 76.8864 57.5449 76.773 57.1558C76.661 56.7714 76.438 56.582 76.1755 56.6585C75.9083 56.7364 75.8219 57.0159 75.9339 57.4003ZM80.5397 57.4924C79.7193 57.7315 79.0727 57.3452 78.8446 56.5623C78.6165 55.7794 78.9543 55.1063 79.7747 54.8672C80.5951 54.6282 81.237 55.0158 81.4651 55.7987C81.6932 56.5816 81.36 57.2533 80.5397 57.4924ZM80.3531 56.8347C80.6016 56.7623 80.6764 56.4608 80.559 56.0576C80.4401 55.6498 80.2164 55.4404 79.9679 55.5128C79.7101 55.5879 79.6291 55.8861 79.748 56.294C79.8655 56.6971 80.0953 56.9099 80.3531 56.8347ZM83.549 55.0033L83.9684 56.4424L83.0824 56.7006L82.3406 54.1551L83.1798 53.9106L83.3191 54.3888L83.3472 54.3806C83.3668 54.029 83.6015 53.7521 83.9765 53.6428C84.5156 53.4857 84.9819 53.7771 85.1412 54.341L85.6138 55.963L84.7278 56.2211L84.3084 54.782C84.2366 54.5181 84.0509 54.4044 83.8118 54.474C83.5775 54.5423 83.4725 54.7407 83.549 55.0033Z" fill="#FFFBEE"/>
<path d="M4.42963 51.9732L4.29018 51.4931L4.28975 51.4932L-18.8446 58.2345C-19.7434 58.4963 -20.2353 59.4462 -19.9754 60.3382L-15.3333 76.2688C-15.0734 77.1608 -14.1482 77.6978 -13.2494 77.4359L9.88494 70.6946L9.74506 70.2146C9.88494 70.6946 9.88518 70.6945 9.88542 70.6945L9.88591 70.6943L9.88699 70.694L9.88948 70.6933L9.89571 70.6914L9.91306 70.6858C9.92671 70.6814 9.94452 70.6753 9.9658 70.6675C10.0082 70.6518 10.0653 70.6289 10.1313 70.5974C10.2611 70.5355 10.4372 70.4351 10.6047 70.2828C10.7046 70.192 10.8045 70.0799 10.8888 69.9441C11.0328 70.0134 11.1772 70.0543 11.3103 70.0772C11.5333 70.1157 11.7358 70.1058 11.8786 70.0882C11.9512 70.0793 12.0117 70.068 12.0558 70.0584C12.078 70.0536 12.0963 70.0492 12.1102 70.0456L12.1278 70.041L12.1341 70.0392L12.1366 70.0385L12.1376 70.0382L12.1381 70.038C12.1384 70.038 12.1386 70.0379 11.9987 69.5579L12.1386 70.0379L16.1783 68.8607C17.0771 68.5988 17.569 67.649 17.3091 66.757L12.667 50.8264C12.4071 49.9344 11.4819 49.3974 10.5831 49.6593L6.54341 50.8365L6.54298 50.8366C6.05651 50.9788 5.76289 51.3011 5.58979 51.6137C5.41288 51.5203 5.22933 51.469 5.06014 51.4455C4.85146 51.4164 4.66405 51.428 4.53148 51.4454C4.46417 51.4542 4.40822 51.4649 4.36728 51.4739C4.34673 51.4784 4.32977 51.4825 4.31682 51.4858L4.30039 51.4902L4.29449 51.4918L4.29213 51.4925L4.2911 51.4928L4.29063 51.493C4.2904 51.493 4.29018 51.4931 4.42963 51.9732Z" stroke="#FFFBEE"/>
<path d="M-10.4264 67.8107C-11.2468 68.0497 -11.8934 67.6634 -12.1215 66.8805C-12.3496 66.0977 -12.0118 65.4245 -11.1914 65.1855C-10.4554 64.971 -9.86368 65.2563 -9.66306 65.9099L-10.4881 66.1503C-10.5894 65.8899 -10.7771 65.7869 -10.9834 65.847C-11.2365 65.9208 -11.3438 66.1809 -11.2195 66.6075C-11.0938 67.0388 -10.8622 67.2053 -10.6091 67.1315C-10.4028 67.0714 -10.2998 66.8837 -10.3556 66.605L-9.53056 66.3646C-9.35065 67.0344 -9.68106 67.5935 -10.4264 67.8107ZM-6.74966 66.7393C-7.57003 66.9783 -8.21661 66.592 -8.44474 65.8092C-8.67286 65.0263 -8.335 64.3531 -7.51463 64.1141C-6.69425 63.875 -6.05236 64.2627 -5.82423 65.0456C-5.59611 65.8284 -5.92929 66.5002 -6.74966 66.7393ZM-6.93621 66.0816C-6.68776 66.0092 -6.61288 65.7077 -6.73035 65.3045C-6.8492 64.8967 -7.07297 64.6872 -7.32143 64.7596C-7.57926 64.8348 -7.66019 65.133 -7.54135 65.5408C-7.42387 65.944 -7.19404 66.1567 -6.93621 66.0816ZM-2.88526 64.357L-3.30326 62.9225L-2.41726 62.6643L-1.67551 65.2098L-2.51463 65.4543L-2.65533 64.9715L-2.68346 64.9797C-2.70171 65.3359 -2.93635 65.6128 -3.31607 65.7235C-3.84579 65.8778 -4.31213 65.5865 -4.47605 65.024L-4.94869 63.402L-4.06269 63.1438L-3.64332 64.583C-3.56819 64.8408 -3.3858 64.9606 -3.14672 64.8909C-2.91701 64.824 -2.80271 64.6228 -2.88526 64.357ZM-0.0546203 65.775L-1.07503 62.2732L-0.198406 62.0178L-0.0700011 62.4584L-0.0465619 62.4516C-0.021882 62.1698 0.148307 61.8811 0.532711 61.7691C1.04369 61.6202 1.6446 61.8672 1.91234 62.7861C2.16778 63.6627 1.83268 64.2232 1.2842 64.383C0.918553 64.4895 0.622101 64.3623 0.445203 64.1392L0.43114 64.1433L0.831382 65.5169L-0.0546203 65.775ZM0.162408 63.2909C0.274421 63.6753 0.500152 63.874 0.767359 63.7961C1.02988 63.7196 1.11491 63.4355 1.00153 63.0464C0.889518 62.662 0.666519 62.4727 0.404 62.5492C0.136793 62.627 0.0503946 62.9065 0.162408 63.2909ZM4.76818 63.383C3.94781 63.6221 3.30123 63.2358 3.0731 62.4529C2.84498 61.67 3.18284 60.9969 4.00321 60.7578C4.82359 60.5188 5.46548 60.9064 5.69361 61.6893C5.92173 62.4722 5.58855 63.144 4.76818 63.383ZM4.58163 62.7254C4.83008 62.653 4.90496 62.3514 4.78749 61.9483C4.66864 61.5404 4.44487 61.331 4.19641 61.4034C3.93858 61.4785 3.85765 61.7767 3.97649 62.1846C4.09397 62.5877 4.3238 62.8005 4.58163 62.7254ZM7.77753 60.8939L8.1969 62.3331L7.3109 62.5912L6.56915 60.0457L7.40827 59.8012L7.54761 60.2794L7.57573 60.2712C7.59535 59.9196 7.82999 59.6427 8.20502 59.5334C8.74412 59.3764 9.21046 59.6677 9.36969 60.2316L9.84233 61.8536L8.95633 62.1118L8.53696 60.6726C8.46515 60.4087 8.27944 60.295 8.04036 60.3647C7.80597 60.433 7.70103 60.6314 7.77753 60.8939Z" fill="#FFFBEE"/>
</g>
<defs>
<clipPath id="clip0_806_8425">
<rect x="0.599609" width="72" height="72" rx="14.72" fill="white"/>
</clipPath>
</defs>
</svg>
