<svg width="73" height="72" viewBox="0 0 73 72" fill="none" xmlns="http://www.w3.org/2000/svg">
<rect x="0.800781" width="72" height="72" rx="14.72" fill="#FFFBEE"/>
<path d="M24.6836 17.5156H26.9102V22.9648C26.9102 24.8867 25.4453 26.1055 23.2656 26.1055C21.0859 26.1055 19.6328 24.8867 19.6328 22.9648V17.5156H21.8594V22.7656C21.8594 23.5859 22.4453 24.1719 23.2656 24.1719C24.0977 24.1719 24.6836 23.5859 24.6836 22.7656V17.5156ZM28.0586 26V17.5156H31.668C33.5664 17.5156 34.8086 18.7109 34.8086 20.4922C34.8086 22.3086 33.5312 23.4453 31.5977 23.4453H30.2852V26H28.0586ZM30.2852 21.7109H31.1523C31.9961 21.7109 32.4766 21.2422 32.4766 20.4922C32.4766 19.7539 31.9961 19.2969 31.1523 19.2969H30.2852V21.7109ZM38.0547 19.3203V17.5156H45.3672V19.3203H42.8125V26H40.6094V19.3203H38.0547ZM54.0273 21.7578C54.0273 24.582 52.2227 26.1172 49.9258 26.1172C47.6055 26.1172 45.8125 24.5703 45.8125 21.7578C45.8125 18.9336 47.6055 17.3984 49.9258 17.3984C52.2227 17.3984 54.0273 18.9336 54.0273 21.7578ZM51.7305 21.7578C51.7305 20.1992 51.0859 19.3438 49.9258 19.3438C48.7539 19.3438 48.1094 20.1992 48.1094 21.7578C48.1094 23.3164 48.7539 24.1719 49.9258 24.1719C51.0859 24.1719 51.7305 23.3164 51.7305 21.7578ZM26.4883 41.1172C24.5547 41.1172 23.1719 40.0039 23.1602 38.4453H25.3281C25.3516 39.043 25.8672 39.418 26.4883 39.418C27.2148 39.418 27.7305 38.9141 27.7188 38.1641C27.7305 37.3906 27.2148 36.8984 26.4883 36.8984C25.9023 36.8867 25.5391 37.1445 25.3281 37.5664H23.3477L23.7109 32.5156H29.3477V34.2969H25.5508L25.375 36.207H25.4219C25.6914 35.7031 26.3828 35.3398 27.2266 35.3398C28.75 35.3398 29.875 36.4766 29.875 38.0938C29.875 39.8633 28.5391 41.1172 26.4883 41.1172ZM34.5391 41.1172C32.2539 41.1172 30.8359 39.5352 30.8359 36.7578C30.8359 33.9688 32.2539 32.3984 34.5391 32.3984C36.8242 32.3984 38.2422 33.9805 38.2422 36.7578C38.2422 39.5469 36.8242 41.1172 34.5391 41.1172ZM34.5391 39.3242C35.3594 39.3125 35.9336 38.5625 35.9336 36.7578C35.9336 35 35.3594 34.1914 34.5391 34.1914C33.7188 34.1914 33.1562 35 33.1445 36.7578C33.1445 38.5625 33.7188 39.3125 34.5391 39.3242ZM41.8398 36.957C40.4688 36.957 39.7305 35.9609 39.7305 34.543C39.7305 33.1133 40.5039 32.1172 41.8398 32.1172C43.2344 32.1172 43.9727 33.1133 43.9844 34.543C43.9727 35.9844 43.2227 36.957 41.8398 36.957ZM41.8398 35.7031C42.3203 35.7031 42.5547 35.2461 42.5547 34.543C42.5547 33.8516 42.332 33.3711 41.8398 33.3711C41.3945 33.3711 41.1602 33.875 41.1602 34.543C41.1602 35.2461 41.418 35.7031 41.8398 35.7031ZM47.9453 41.3867C46.5742 41.3867 45.8359 40.3906 45.8359 38.9727C45.8359 37.543 46.6094 36.5469 47.9453 36.5469C49.3398 36.5469 50.0781 37.543 50.0781 38.9727C50.0781 40.4141 49.3164 41.3867 47.9453 41.3867ZM47.9453 40.1328C48.4141 40.1328 48.6484 39.6758 48.6602 38.9727C48.6484 38.2812 48.4375 37.8008 47.9453 37.8125C47.5 37.8008 47.2539 38.3047 47.2539 38.9727C47.2539 39.6758 47.5117 40.1328 47.9453 40.1328ZM41.1953 41L47.0312 32.5156H48.5898L42.7539 41H41.1953ZM26.6934 50.1406C26.6465 49.5664 26.2715 49.2383 25.5098 49.2383C24.7715 49.2383 24.4434 49.5195 24.4316 49.918C24.4199 50.3516 24.8184 50.5977 25.6035 50.7617L26.3066 50.9258C28.1348 51.3125 28.9434 52.2031 28.9551 53.5039C28.9434 55.168 27.666 56.1055 25.5215 56.1055C23.3301 56.1055 21.9121 55.1445 21.8887 53.0586H24.0215C24.0566 53.8438 24.6074 54.2656 25.4863 54.2656C26.248 54.2656 26.6582 53.9492 26.6699 53.5039C26.6582 53.0938 26.3184 52.8594 25.3691 52.6484L24.5137 52.4609C23.0254 52.1328 22.1113 51.3945 22.1113 50.082C22.0996 48.4766 23.5176 47.3984 25.5098 47.3984C27.5488 47.3984 28.8262 48.4883 28.8379 50.1406H26.6934ZM31.6504 56H29.2363L32.0605 47.5156H35.0957L37.9082 56H35.5059L35.002 54.3359H32.1543L31.6504 56ZM32.6699 52.6484H34.4863L33.6074 49.8008H33.5371L32.6699 52.6484ZM38.752 56V47.5156H40.9785V54.1953H44.4355V56H38.752ZM45.3965 56V47.5156H51.4551V49.3203H47.623V50.8555H51.1387V52.6602H47.623V54.1953H51.4434V56H45.3965Z" fill="#302A28"/>
</svg>
