<svg width="73" height="72" viewBox="0 0 73 72" fill="none" xmlns="http://www.w3.org/2000/svg">
<rect x="0.199219" width="72" height="72" rx="14.72" fill="#FFFBEE"/>
<path d="M17.0352 36V27.5156H23.0938V29.3203H19.2617V30.8555H22.7773V32.6602H19.2617V34.1953H23.082V36H17.0352ZM26.4688 27.5156L28.25 33.5625H28.3203L30.1016 27.5156H32.6211L29.8086 36H26.7734L23.9492 27.5156H26.4688ZM33.4648 36V27.5156H39.5234V29.3203H35.6914V30.8555H39.207V32.6602H35.6914V34.1953H39.5117V36H33.4648ZM47.9961 27.5156V36H46.1328L42.9805 31.418H42.9219V36H40.6953V27.5156H42.5938L45.6992 32.0742H45.7695V27.5156H47.9961ZM48.8984 29.3203V27.5156H56.2109V29.3203H53.6562V36H51.4531V29.3203H48.8984Z" fill="#302A28"/>
<path d="M22.6602 50V41.5156H26.2695C28.168 41.5156 29.4102 42.7109 29.4102 44.4922C29.4102 46.3086 28.1328 47.4453 26.1992 47.4453H24.8867V50H22.6602ZM24.8867 45.7109H25.7539C26.5977 45.7109 27.0781 45.2422 27.0781 44.4922C27.0781 43.7539 26.5977 43.2969 25.7539 43.2969H24.8867V45.7109ZM29.7383 48.2422C29.7383 46.8359 30.7812 46.2969 32.082 46.2148L33.5703 46.1562V45.6406C33.5703 45.2891 33.2773 45.0898 32.8438 45.0898C32.3867 45.0898 32.0938 45.2891 32.0352 45.6875H29.9844C30.0664 44.5273 31.0039 43.5547 32.8789 43.5547C34.6484 43.5547 35.7852 44.4219 35.7852 45.6523V50H33.7109V49.1094H33.6641C33.2891 49.8008 32.6562 50.1055 31.8125 50.1055C30.5938 50.1055 29.7383 49.5078 29.7383 48.2422ZM31.8242 48.1133C31.8242 48.4883 32.1172 48.6875 32.5273 48.6875C33.0781 48.6875 33.5938 48.3359 33.582 47.7383V47.3984C33.3594 47.4043 32.7734 47.4277 32.4805 47.457C32.082 47.5039 31.8242 47.7734 31.8242 48.1133ZM39.9453 52.5195C38.0469 52.5195 36.9453 51.6523 36.8516 50.4336H38.9961C39.0664 50.8438 39.4648 51.0195 40.0039 51.0195C40.625 51.0195 41.0703 50.7617 41.0703 49.9883V48.8984H41.0117C40.7656 49.5312 40.0977 49.918 39.2188 49.918C37.8477 49.918 36.6992 49.0039 36.6992 46.8125C36.6992 44.5273 37.918 43.5547 39.1953 43.5547C40.1562 43.5547 40.7422 44.1055 40.9883 44.7383H41.0469V43.6367H43.2617V50C43.2617 51.6172 41.9375 52.5195 39.9453 52.5195ZM40.0156 48.3359C40.6836 48.3359 41.082 47.7734 41.082 46.8125C41.082 45.8516 40.6836 45.2656 40.0156 45.2656C39.3594 45.2656 38.9844 45.8516 38.9844 46.8125C38.9844 47.7852 39.3594 48.3359 40.0156 48.3359ZM47.4688 50.1172C45.4414 50.1172 44.1992 48.8867 44.1992 46.8359C44.1992 44.8672 45.4531 43.5547 47.4219 43.5547C49.3086 43.5547 50.5625 44.7734 50.5625 46.8125V47.3398H46.3906V47.4219C46.3906 48.0781 46.8125 48.5469 47.5156 48.5469C47.9961 48.5469 48.3828 48.3359 48.5234 47.9727H50.5508C50.3281 49.2852 49.2031 50.1172 47.4688 50.1172ZM46.3906 46.0977H48.5117C48.5 45.5234 48.0547 45.125 47.4688 45.125C46.877 45.125 46.4082 45.5293 46.3906 46.0977Z" fill="#302A28"/>
</svg>
