<svg width="72" height="72" viewBox="0 0 72 72" fill="none" xmlns="http://www.w3.org/2000/svg">
<rect width="72" height="72" rx="14.72" fill="#FFFBEE"/>
<path d="M18.6572 28V20.2227H24.2109V21.877H20.6982V23.2842H23.9209V24.9385H20.6982V26.3457H24.2002V28H18.6572ZM27.3047 20.2227L28.9375 25.7656H29.002L30.6348 20.2227H32.9443L30.3662 28H27.584L24.9951 20.2227H27.3047ZM33.7178 28V20.2227H39.2715V21.877H35.7588V23.2842H38.9814V24.9385H35.7588V26.3457H39.2607V28H33.7178ZM47.0381 20.2227V28H45.3301L42.4404 23.7998H42.3867V28H40.3457V20.2227H42.0859L44.9326 24.4014H44.9971V20.2227H47.0381ZM47.8652 21.877V20.2227H54.5684V21.877H52.2266V28H50.207V21.877H47.8652ZM6.92139 39V31.2227H12.3462V32.877H8.9624V34.2842H12.0024V35.9385H8.9624V39H6.92139ZM15.2036 31.2227V39H13.1626V31.2227H15.2036ZM16.2563 39V31.2227H19.5649C21.3052 31.2227 22.4438 32.2109 22.4438 33.8545C22.4438 34.9287 21.9497 35.6914 21.1118 36.0889L22.7017 39H20.478L19.103 36.4111H18.2974V39H16.2563ZM18.2974 34.8105H19.0923C19.8657 34.8105 20.3062 34.5312 20.3062 33.8545C20.3062 33.167 19.8657 32.8555 19.0923 32.8555H18.2974V34.8105ZM27.5571 33.6289C27.5142 33.1025 27.1704 32.8018 26.4722 32.8018C25.7954 32.8018 25.4946 33.0596 25.4839 33.4248C25.4731 33.8223 25.8384 34.0479 26.5581 34.1982L27.2026 34.3486C28.8784 34.7031 29.6196 35.5195 29.6304 36.7119C29.6196 38.2373 28.4487 39.0967 26.4829 39.0967C24.4741 39.0967 23.1743 38.2158 23.1528 36.3037H25.1079C25.1401 37.0234 25.645 37.4102 26.4507 37.4102C27.1489 37.4102 27.5249 37.1201 27.5356 36.7119C27.5249 36.3359 27.2134 36.1211 26.3433 35.9277L25.5591 35.7559C24.1948 35.4551 23.3569 34.7783 23.3569 33.5752C23.3462 32.1035 24.646 31.1152 26.4722 31.1152C28.3413 31.1152 29.5122 32.1143 29.5229 33.6289H27.5571ZM30.2427 32.877V31.2227H36.9458V32.877H34.604V39H32.5845V32.877H30.2427ZM39.9429 32.877V31.2227H46.646V32.877H44.3042V39H42.2847V32.877H39.9429ZM49.5142 31.2227V39H47.4731V31.2227H49.5142ZM50.5669 31.2227H53.1128L54.9604 35.7451H55.0571L56.9048 31.2227H59.4507V39H57.4526V34.4238H57.3882L55.6157 38.9463H54.3911L52.6294 34.3916H52.5649V39H50.5669V31.2227ZM60.5034 39V31.2227H66.0571V32.877H62.5444V34.2842H65.7671V35.9385H62.5444V37.3457H66.0464V39H60.5034Z" fill="#302A28"/>
<g style="mix-blend-mode:multiply">
<path d="M22.6558 47.272C23.0398 47.016 23.4664 46.888 23.9358 46.888C24.4478 46.9733 25.0024 47.0373 25.5998 47.08C26.1971 47.1227 26.7304 47.2293 27.1998 47.4C27.6264 47.5707 28.0744 47.784 28.5438 48.04C28.9704 48.3813 29.2264 48.7013 29.3118 49C29.4398 49.2987 29.4398 49.7467 29.3118 50.344C29.2264 50.728 29.0771 51.1333 28.8638 51.56C28.6504 51.944 28.3944 52.3067 28.0958 52.648C27.8824 52.9893 27.6264 53.3307 27.3278 53.672C27.0718 54.0133 26.7944 54.3547 26.4958 54.696C26.1118 55.08 25.5998 55.4213 24.9598 55.72C24.7464 55.9333 24.4904 56.0827 24.1918 56.168C23.9358 56.2533 23.6798 56.36 23.4238 56.488C22.6984 56.872 21.8024 56.936 20.7358 56.68C19.6691 56.424 18.7731 55.9333 18.0478 55.208C17.9198 54.9947 17.8131 54.7813 17.7278 54.568C17.6851 54.3547 17.6211 54.1413 17.5358 53.928C17.4504 53.3733 17.4078 52.904 17.4078 52.52C17.4078 52.0933 17.4931 51.5813 17.6638 50.984C17.7491 50.5147 17.8771 50.0667 18.0478 49.64C18.2184 49.1707 18.4104 48.744 18.6238 48.36C18.8371 47.8907 19.0504 47.464 19.2638 47.08C19.4771 46.6533 19.6478 46.2053 19.7758 45.736C19.8611 45.608 19.9464 45.4587 20.0318 45.288C20.1598 45.1173 20.3091 44.9893 20.4798 44.904V44.776C20.4798 44.7333 20.4798 44.712 20.4798 44.712C20.5224 44.6693 20.5438 44.6267 20.5438 44.584C20.6291 44.072 20.8211 43.6027 21.1198 43.176C21.4611 42.7493 21.7811 42.3227 22.0798 41.896C23.0184 40.6587 23.9998 39.4853 25.0238 38.376C26.0904 37.224 27.1784 36.072 28.2878 34.92C28.4158 34.792 28.5651 34.6853 28.7358 34.6C28.9491 34.5147 29.1411 34.4293 29.3118 34.344C29.6531 34.088 30.0371 34.088 30.4638 34.344C30.5064 34.4293 30.5704 34.5147 30.6558 34.6C30.7838 34.6853 30.8904 34.7707 30.9758 34.856C31.0611 34.8987 31.1038 34.984 31.1038 35.112C31.1464 35.24 31.1678 35.3253 31.1678 35.368C31.1678 35.7093 31.1038 35.9013 30.9758 35.944C30.7624 36.1147 30.5918 36.264 30.4638 36.392C30.3784 36.52 30.2291 36.6693 30.0158 36.84C29.3331 37.3093 28.7144 37.864 28.1598 38.504C27.6051 39.144 27.0504 39.7627 26.4958 40.36C25.8984 41.0853 25.3224 41.7893 24.7678 42.472C24.2131 43.1547 23.7011 43.8587 23.2318 44.584C22.8904 45.1813 22.5704 45.7573 22.2718 46.312C21.9731 46.8667 21.6531 47.4427 21.3118 48.04C21.0984 48.5947 20.8638 49.192 20.6078 49.832C20.3944 50.472 20.2451 51.0907 20.1598 51.688C19.8184 52.2853 19.7544 52.9893 19.9678 53.8C19.9678 54.0133 20.0531 54.2053 20.2238 54.376C20.4371 54.5467 20.6504 54.5893 20.8638 54.504C21.0344 54.504 21.1624 54.504 21.2478 54.504C21.3331 54.4613 21.4611 54.3973 21.6318 54.312C23.6798 53.672 25.3011 52.456 26.4958 50.664C26.5811 50.4933 26.6451 50.3653 26.6878 50.28C26.7304 50.1947 26.7517 50.088 26.7517 49.96C26.9224 49.5333 26.8798 49.256 26.6238 49.128C26.2824 49 25.9411 48.8293 25.5998 48.616C25.3011 48.36 24.9171 48.232 24.4478 48.232C24.1918 48.232 23.9571 48.1893 23.7438 48.104C23.5304 47.976 23.2958 47.8693 23.0398 47.784C22.9544 47.784 22.8904 47.7627 22.8478 47.72L22.7198 47.592C22.6771 47.464 22.6558 47.3573 22.6558 47.272ZM37.1173 36.136C37.5866 36.0507 38.0559 36.008 38.5253 36.008C39.0373 35.9653 39.5279 36.0507 39.9973 36.264C40.2106 35.9227 40.3813 35.624 40.5093 35.368C40.6799 35.112 40.8719 34.8347 41.0853 34.536C41.2559 34.4507 41.4479 34.408 41.6613 34.408C41.8746 34.3653 42.0666 34.3013 42.2373 34.216C42.9626 34.216 43.5599 34.4507 44.0293 34.92C44.5413 35.3467 44.8399 35.88 44.9253 36.52C45.0106 37.5013 44.9893 38.44 44.8613 39.336C44.7333 40.232 44.5199 41.1067 44.2213 41.96C43.7093 43.9227 42.9839 45.7787 42.0453 47.528C41.1066 49.2773 40.0186 50.9413 38.7812 52.52C38.4399 52.9893 38.0559 53.48 37.6293 53.992C37.2026 54.4613 36.8186 54.9307 36.4773 55.4C35.9653 55.8693 35.2613 56.2533 34.3653 56.552C33.5546 56.8507 32.7866 56.7227 32.0613 56.168C31.3359 55.5707 30.9733 54.824 30.9733 53.928C30.9733 53.2027 31.0799 52.5413 31.2933 51.944C31.5066 51.304 31.6986 50.6853 31.8693 50.088C32.1253 49.3627 32.3813 48.6587 32.6373 47.976C32.9359 47.2933 33.2133 46.5893 33.4693 45.864C33.8106 44.968 34.1306 44.072 34.4293 43.176C34.7279 42.28 34.9413 41.3413 35.0693 40.36C35.0693 40.1467 35.1333 39.9547 35.2613 39.784C35.3893 39.5707 35.4959 39.3573 35.5813 39.144C35.8373 38.632 36.0933 38.12 36.3493 37.608C36.6479 37.096 36.9039 36.6053 37.1173 36.136ZM33.4693 53.416C33.9386 53.2027 34.4933 52.7973 35.1333 52.2C35.7733 51.56 36.3919 50.856 36.9893 50.088C37.6293 49.2773 38.2266 48.4667 38.7812 47.656C39.3359 46.8027 39.7839 46.0133 40.1253 45.288C40.7653 44.0507 41.3199 42.7707 41.7893 41.448C42.2586 40.1253 42.5359 38.7173 42.6213 37.224C42.3653 37.224 42.0879 37.2667 41.7893 37.352C41.5333 37.3947 41.2986 37.416 41.0853 37.416C40.5306 37.416 40.1039 37.544 39.8053 37.8C39.5066 38.0133 39.2079 38.3547 38.9093 38.824C38.1413 40.3173 37.4159 41.8533 36.7333 43.432C36.0506 44.968 35.4106 46.5253 34.8133 48.104C34.4719 49.0427 34.1733 49.9173 33.9173 50.728C33.7039 51.5387 33.5546 52.4347 33.4693 53.416Z" fill="#0348FF"/>
</g>
<g style="mix-blend-mode:multiply">
<path d="M53.9761 39.85C54.1361 39.85 54.2761 39.84 54.3961 39.82C54.5361 39.78 54.6861 39.76 54.8461 39.76C54.9861 39.76 55.0961 39.84 55.1761 40C55.2561 40.14 55.2761 40.27 55.2361 40.39C55.1361 40.55 55.0661 40.65 55.0261 40.69C54.8661 40.91 54.6861 41.12 54.4861 41.32C54.3061 41.52 54.1361 41.73 53.9761 41.95C53.4561 42.61 52.9261 43.28 52.3861 43.96C51.8661 44.62 51.3461 45.28 50.8261 45.94C50.6461 46.16 50.4761 46.38 50.3161 46.6C50.1561 46.8 49.9961 47 49.8361 47.2C49.1761 47.96 48.5461 48.73 47.9461 49.51C47.3661 50.29 46.7661 51.07 46.1461 51.85C46.1461 51.89 46.1261 51.91 46.0861 51.91C46.0661 51.91 46.0361 51.93 45.9961 51.97C45.7961 52.07 45.6461 52.12 45.5461 52.12C45.4861 52.12 45.4161 52.11 45.3361 52.09C45.2561 52.07 45.1761 52.06 45.0961 52.06C45.0761 52.04 45.0661 52 45.0661 51.94V51.91C45.1061 51.81 45.1361 51.72 45.1561 51.64C45.1761 51.54 45.2461 51.47 45.3661 51.43C45.5061 51.29 45.6061 51.15 45.6661 51.01C45.7061 50.97 45.7261 50.92 45.7261 50.86C45.7461 50.8 45.8061 50.75 45.9061 50.71C46.0661 50.65 46.1761 50.56 46.2361 50.44C46.3161 50.3 46.3961 50.16 46.4761 50.02C46.5561 49.8 46.6661 49.61 46.8061 49.45C46.9461 49.27 47.0961 49.08 47.2561 48.88C47.4761 48.66 47.6761 48.44 47.8561 48.22C48.0561 48 48.2461 47.78 48.4261 47.56C48.5861 47.4 48.7161 47.27 48.8161 47.17C48.9361 47.07 49.0561 46.95 49.1761 46.81C49.2561 46.65 49.3561 46.52 49.4761 46.42C49.5961 46.3 49.6861 46.16 49.7461 46C49.8861 45.8 50.0261 45.61 50.1661 45.43C50.3061 45.25 50.4561 45.07 50.6161 44.89C50.6761 44.79 50.7561 44.69 50.8561 44.59C50.9561 44.49 51.0261 44.39 51.0661 44.29C51.2661 43.95 51.4661 43.64 51.6661 43.36C51.8861 43.08 52.1061 42.8 52.3261 42.52C52.4061 42.36 52.4961 42.22 52.5961 42.1C52.6961 41.96 52.7661 41.81 52.8061 41.65C52.8061 41.59 52.8261 41.53 52.8661 41.47C52.9261 41.41 52.9761 41.34 53.0161 41.26C53.0961 41.1 53.1761 40.96 53.2561 40.84C53.3561 40.72 53.4261 40.57 53.4661 40.39C53.5061 40.29 53.5761 40.2 53.6761 40.12C53.7761 40.02 53.8761 39.93 53.9761 39.85ZM46.4161 42.79C46.4361 42.65 46.4561 42.52 46.4761 42.4C46.5161 42.26 46.5761 42.16 46.6561 42.1C46.8161 41.96 46.9361 41.8 47.0161 41.62C47.0961 41.44 47.1861 41.27 47.2861 41.11C47.3661 40.93 47.4461 40.77 47.5261 40.63C47.6061 40.49 47.7061 40.33 47.8261 40.15C47.9061 40.11 47.9561 40.05 47.9761 39.97C48.0161 39.87 48.0861 39.8 48.1861 39.76H48.8761C48.9161 39.76 48.9461 39.78 48.9661 39.82C49.0061 39.84 49.0461 39.85 49.0861 39.85C49.2461 40.01 49.4061 40.17 49.5661 40.33C49.7461 40.49 49.8961 40.63 50.0161 40.75C50.2961 41.03 50.4961 41.33 50.6161 41.65C50.7161 41.87 50.7361 42.09 50.6761 42.31C50.6161 42.51 50.5061 42.69 50.3461 42.85C50.0061 43.21 49.6361 43.53 49.2361 43.81C48.8561 44.09 48.4361 44.29 47.9761 44.41C47.4961 44.49 47.0761 44.35 46.7161 43.99C46.5161 43.59 46.4161 43.19 46.4161 42.79ZM49.2061 41.77C49.1661 41.71 49.1361 41.65 49.1161 41.59C49.1161 41.53 49.0961 41.48 49.0561 41.44C48.8761 41.32 48.7261 41.12 48.6061 40.84C48.5861 40.82 48.5661 40.81 48.5461 40.81C48.5061 40.81 48.4861 40.82 48.4861 40.84C48.3661 41.02 48.2461 41.19 48.1261 41.35C48.0061 41.49 47.9261 41.67 47.8861 41.89C47.8261 42.05 47.7661 42.22 47.7061 42.4C47.6461 42.58 47.5661 42.75 47.4661 42.91C47.4661 42.97 47.4761 43.01 47.4961 43.03C47.5161 43.03 47.5261 43.05 47.5261 43.09H47.6161C47.6761 43.09 47.7261 43.08 47.7661 43.06C47.8261 43.04 47.8861 43.03 47.9461 43.03C48.2061 42.87 48.4261 42.71 48.6061 42.55C48.8061 42.37 49.0061 42.17 49.2061 41.95V41.77ZM50.8861 51.7C50.6861 51.7 50.5261 51.68 50.4061 51.64C50.2861 51.6 50.1461 51.53 49.9861 51.43C49.7261 51.17 49.5661 50.94 49.5061 50.74C49.4461 50.54 49.4661 50.21 49.5661 49.75C49.6261 49.65 49.6761 49.55 49.7161 49.45C49.7561 49.33 49.8261 49.21 49.9261 49.09C50.0061 48.93 50.0961 48.76 50.1961 48.58C50.3161 48.4 50.4061 48.2 50.4661 47.98C50.4661 47.94 50.4761 47.92 50.4961 47.92H50.5261C50.6861 47.64 50.8161 47.46 50.9161 47.38C51.0161 47.3 51.2161 47.32 51.5161 47.44C51.9161 47.58 52.2861 47.77 52.6261 48.01C52.9661 48.25 53.2261 48.57 53.4061 48.97C53.5661 49.19 53.6261 49.4 53.5861 49.6C53.5461 49.8 53.4461 50.01 53.2861 50.23C53.0461 50.63 52.7561 50.93 52.4161 51.13C52.0761 51.33 51.6861 51.49 51.2461 51.61C51.1861 51.65 51.1161 51.68 51.0361 51.7C50.9761 51.7 50.9261 51.7 50.8861 51.7ZM51.4561 48.52C51.4161 48.52 51.3961 48.54 51.3961 48.58C51.3961 48.62 51.3761 48.64 51.3361 48.64C51.1361 48.86 50.9861 49.11 50.8861 49.39C50.8061 49.67 50.7161 49.97 50.6161 50.29L50.6761 50.35C50.6761 50.47 50.7161 50.53 50.7961 50.53C50.8361 50.53 50.8861 50.53 50.9461 50.53C51.0261 50.51 51.0861 50.48 51.1261 50.44C51.5261 50.28 51.8561 50 52.1161 49.6C52.1561 49.6 52.1761 49.58 52.1761 49.54C52.1961 49.48 52.2061 49.43 52.2061 49.39C52.0661 48.99 51.8161 48.7 51.4561 48.52Z" fill="#0348FF"/>
</g>
</svg>
