<svg width="73" height="72" viewBox="0 0 73 72" fill="none" xmlns="http://www.w3.org/2000/svg">
<g clip-path="url(#clip0_806_8467)">
<rect x="0.400391" width="72" height="72" rx="14.72" fill="#302A28"/>
<path d="M70.1947 42.9315C70.4746 42.0662 71.1109 40.2847 71.3145 40.2847C71.6453 40.2847 72.2307 40.4375 72.4852 40.5647L72.2561 45.0948C71.569 45.0948 70.551 44.9675 70.0929 44.8148H59.0476C58.9459 44.5349 58.9204 43.4914 59.0476 43.3387C59.124 43.2369 59.8875 43.0333 60.1929 42.957C60.4728 42.8806 60.6255 42.8297 60.651 42.6516C60.7019 41.9644 60.7273 40.8192 60.7273 40.2084V29.3922C59.862 29.2395 59.0222 29.0105 59.0222 28.9341C59.0222 28.7051 59.0476 27.7889 59.1749 27.5089H70.9073C71.3654 27.5089 71.8998 27.458 72.2561 27.3817L72.4852 31.4791C72.2307 31.6063 71.4672 31.759 71.1363 31.759C71.0091 31.759 70.4746 30.2575 70.1947 29.3922H65.5374L63.5268 29.265V35.0421H68.3878C68.5405 34.1768 68.7695 33.3369 68.8458 33.3369C69.0749 33.3369 70.0929 33.3624 70.3728 33.4896V38.5033C70.0929 38.6051 68.9476 38.6305 68.7949 38.5033C68.6931 38.4269 68.4896 37.6634 68.4132 37.358C68.3369 37.0781 68.286 36.9254 68.1078 36.8999C67.4207 36.849 66.4536 36.8236 65.8428 36.8236H63.5268V43.0588L65.5374 42.9315H70.1947Z" fill="url(#paint0_linear_806_8467)"/>
<path d="M43.7879 44.8149C43.6861 44.535 43.6607 43.4915 43.7879 43.3388C43.8643 43.237 44.6278 43.0334 44.9332 42.9571C45.2131 42.8807 45.3658 42.8298 45.3913 42.6517C45.4422 41.9645 45.4676 40.8193 45.4676 40.2085V29.3923C44.6023 29.2396 43.7625 29.0105 43.7625 28.9342C43.7625 28.7051 43.7879 27.7889 43.9152 27.509H49.9468C50.0486 27.7889 50.074 28.8324 49.9468 28.9851C49.8704 29.0869 49.1324 29.2905 48.8016 29.3668C48.5216 29.4432 48.3689 29.4941 48.3435 29.6722C48.2926 30.3594 48.2671 31.5046 48.2671 32.1154V43.0589L50.2776 42.9316H54.935C55.2149 42.0663 55.8512 40.2594 56.0548 40.2594C56.3856 40.2594 56.971 40.4121 57.2255 40.5393L56.9964 45.0948C56.3093 45.0948 55.2913 44.9676 54.8332 44.8149H43.7879Z" fill="url(#paint1_linear_806_8467)"/>
<path d="M42.3206 43.2368C42.4987 43.4658 42.4732 44.5856 42.346 44.8147H36.3653C36.238 44.5602 36.1871 43.644 36.1871 43.3895C36.1871 43.3386 37.0779 43.1604 37.8159 43.0841L36.5434 39.5465H30.0283L28.8321 43.0586C29.4938 43.135 30.3846 43.2622 30.3846 43.3895C30.3846 43.5931 30.3082 44.5856 30.181 44.8147H24.8874C24.7601 44.6111 24.7856 43.4658 24.9383 43.2622C25.1419 43.1604 25.4982 43.0332 25.8036 42.9568C25.9817 42.9059 26.1599 42.8041 26.2617 42.6005C26.5671 41.9134 26.9997 40.8954 27.1779 40.4373L31.9879 27.5088C32.5733 27.4324 33.4131 27.2288 33.8966 27.0507C34.1002 26.9998 34.6601 26.9998 34.8383 27.0507L39.8265 40.2337C40.0301 40.7427 40.6409 42.0661 40.8954 42.5242C41.0735 42.8296 41.2008 42.9314 41.4044 42.9823C41.6589 43.0332 42.0406 43.1095 42.3206 43.2368ZM30.6645 37.7396H35.8817L34.5838 34.2021L33.3113 30.4864H33.1077L31.8861 34.2275L30.6645 37.7396Z" fill="url(#paint2_linear_806_8467)"/>
<path d="M17.2284 45.3239C15.5487 45.3239 13.9454 44.993 12.8765 44.7131L11.5785 44.2805C11.4004 44.2296 11.4004 44.1532 11.4004 44.0005V39.5722C11.7312 39.4704 12.4947 39.4704 12.851 39.5722L13.5891 41.5573C14.0472 42.8044 15.4724 43.4661 17.4066 43.4661C20.0533 43.4661 21.0459 42.219 21.0459 40.6157C21.0459 38.7578 19.6207 38.1725 18.4246 37.7144L15.8287 36.7218C13.5636 35.8566 11.5785 34.2278 11.5785 31.7591C11.5785 29.4686 13.2328 27 17.4575 27C18.8063 27 20.1551 27.2545 21.4531 27.6617L22.9037 28.2725C23.031 28.3234 23.0819 28.3997 23.0819 28.527V32.3445C22.8528 32.3954 21.9621 32.3954 21.6312 32.3445L20.9695 30.5884C20.6387 29.6722 19.3916 28.9342 17.5084 28.9342C15.0652 28.9342 14.3271 30.1558 14.3271 31.4028C14.3271 33.0571 15.7523 33.6933 16.923 34.126L19.4171 35.0676C22.2929 36.1619 23.7945 37.6126 23.7945 40.0558C23.7945 42.9571 21.7076 45.3239 17.2284 45.3239Z" fill="url(#paint3_linear_806_8467)"/>
</g>
<defs>
<linearGradient id="paint0_linear_806_8467" x1="11.4004" y1="54.0248" x2="72.4004" y2="54.0248" gradientUnits="userSpaceOnUse">
<stop stop-color="#EFEBDF"/>
<stop offset="1"/>
</linearGradient>
<linearGradient id="paint1_linear_806_8467" x1="11.4004" y1="54.0248" x2="72.4004" y2="54.0248" gradientUnits="userSpaceOnUse">
<stop stop-color="#EFEBDF"/>
<stop offset="1"/>
</linearGradient>
<linearGradient id="paint2_linear_806_8467" x1="11.4004" y1="54.0248" x2="72.4004" y2="54.0248" gradientUnits="userSpaceOnUse">
<stop stop-color="#EFEBDF"/>
<stop offset="1"/>
</linearGradient>
<linearGradient id="paint3_linear_806_8467" x1="11.4004" y1="54.0248" x2="72.4004" y2="54.0248" gradientUnits="userSpaceOnUse">
<stop stop-color="#EFEBDF"/>
<stop offset="1"/>
</linearGradient>
<clipPath id="clip0_806_8467">
<rect x="0.400391" width="72" height="72" rx="14.72" fill="white"/>
</clipPath>
</defs>
</svg>
