<svg width="25" height="11" viewBox="0 0 25 11" fill="none" xmlns="http://www.w3.org/2000/svg">
<g id="Frame 1707482654">
<path d="M0 8C0 3.58172 3.58172 0 8 0H19.5C22.5376 0 25 2.46243 25 5.5C25 8.53757 22.5376 11 19.5 11H0V8Z" fill="#0348FF"/>
<g id="HOT">
<path id="Vector" d="M16.3125 4.04688V3.07812H20.9453V4.04688H19.2109V8.73438H18.0469V4.04688H16.3125Z" fill="white"/>
<path id="Vector_2" d="M15.9375 5.90625C15.9375 7.75 14.7891 8.8125 13.2969 8.8125C11.7891 8.8125 10.6484 7.74219 10.6484 5.90625C10.6484 4.0625 11.7891 3 13.2969 3C14.7891 3 15.9375 4.0625 15.9375 5.90625ZM14.7422 5.90625C14.7422 4.69531 14.1719 4.03906 13.2969 4.03906C12.4219 4.03906 11.8438 4.69531 11.8438 5.90625C11.8438 7.11719 12.4219 7.77344 13.2969 7.77344C14.1719 7.77344 14.7422 7.11719 14.7422 5.90625Z" fill="white"/>
<path id="Vector_3" d="M5 8.73438V3.07812H6.17188V5.42188H8.625V3.07812H9.80469V8.73438H8.625V6.39062H6.17188V8.73438H5Z" fill="white"/>
</g>
</g>
</svg>
