<svg xmlns="http://www.w3.org/2000/svg" width="116" height="27" viewBox="0 0 116 27" fill="none">
  <path d="M13.4404 5.99748C14.0061 6.664 14.436 7.43221 14.7528 8.31338C15.0582 9.19455 15.2166 10.2 15.2166 11.3297C15.2166 12.4594 15.0356 13.4535 14.6623 14.3799C14.2889 15.295 13.8024 16.0858 13.1915 16.7297C12.558 17.3849 11.8452 17.8933 11.0646 18.2435C10.284 18.5937 9.45807 18.7745 8.57562 18.7745C7.69317 18.7745 7.02567 18.6841 6.48262 18.492C5.93958 18.3 5.49835 18.0741 5.15895 17.8255H5.04581V24.3213C5.04581 24.6603 5.11369 24.954 5.24945 25.1799C5.38522 25.4059 5.58886 25.5753 5.86038 25.677C6.08665 25.7674 6.41474 25.8465 6.84466 25.9255C7.26325 26.0046 7.61397 26.0498 7.89681 26.0611V26.9988H0V26.0611C0.29415 26.0385 0.576988 26.0159 0.859824 25.9933C1.14266 25.9707 1.38024 25.9142 1.60651 25.8465C1.88935 25.7561 2.09299 25.5866 2.20613 25.3494C2.31926 25.1121 2.37583 24.8297 2.37583 24.5021V7.26275C2.37583 6.98032 2.30795 6.69789 2.16087 6.43806C2.0138 6.17823 1.83278 5.95229 1.60651 5.79413C1.43681 5.68116 1.19923 5.59078 0.893765 5.5343C0.588301 5.47781 0.29415 5.43262 0.0113135 5.41003V4.47237L4.81954 4.15605L5.02319 4.32551V5.9071L5.13632 5.94099C5.63411 5.36484 6.24504 4.89036 6.98042 4.51756C7.71579 4.14476 8.43986 3.94141 9.16392 3.94141C10.0351 3.94141 10.8383 4.12216 11.5737 4.49496C12.3091 4.86776 12.9313 5.36484 13.4517 5.99748H13.4404ZM11.1098 16.1197C11.4945 15.5322 11.7773 14.8431 11.9583 14.0636C12.1394 13.2841 12.2299 12.4142 12.2299 11.454C12.2299 10.7535 12.1507 10.0305 12.0036 9.29622C11.8565 8.56191 11.6076 7.92928 11.2909 7.38702C10.9628 6.83346 10.5442 6.39287 10.0237 6.04266C9.50332 5.69245 8.86977 5.523 8.13439 5.523C7.39902 5.523 6.83334 5.68115 6.33555 5.98618C5.83776 6.2912 5.40784 6.664 5.04581 7.09329V15.4192C5.13632 15.6791 5.27208 15.9389 5.46441 16.2213C5.65674 16.4925 5.8717 16.7297 6.10928 16.9331C6.40343 17.1703 6.72021 17.3623 7.07093 17.5092C7.42164 17.6561 7.82893 17.7351 8.32672 17.7351C8.85845 17.7351 9.37888 17.5996 9.86535 17.3172C10.3518 17.0347 10.7704 16.6393 11.1098 16.1197Z" fill="#231815"/>
  <path d="M29.7207 15.0912C29.1324 16.2096 28.3405 17.1134 27.3449 17.7799C26.3493 18.4464 25.218 18.7741 23.9282 18.7741C22.7969 18.7741 21.8013 18.5707 20.9528 18.1753C20.1043 17.7799 19.3915 17.2377 18.8485 16.5485C18.2941 15.8594 17.8868 15.0686 17.6153 14.1536C17.3438 13.2385 17.208 12.2782 17.208 11.2502C17.208 10.3351 17.3551 9.44267 17.6492 8.5615C17.9434 7.68033 18.362 6.88952 18.9277 6.1891C19.4707 5.51128 20.1495 4.96902 20.9528 4.55103C21.756 4.13304 22.6611 3.92969 23.6567 3.92969C24.6523 3.92969 25.5687 4.08785 26.304 4.41546C27.0394 4.74308 27.6277 5.18366 28.0916 5.74852C28.5328 6.27948 28.8609 6.91213 29.0758 7.63514C29.2908 8.35815 29.3926 9.14894 29.3926 9.99623V10.9339H20.059C20.059 11.8602 20.1495 12.6962 20.3192 13.4531C20.4889 14.21 20.7718 14.8653 21.1564 15.4414C21.5298 15.995 22.0162 16.4356 22.6159 16.7519C23.2155 17.0682 23.9282 17.2264 24.7654 17.2264C25.6026 17.2264 26.3493 17.023 26.9602 16.6276C27.5712 16.2322 28.1708 15.5205 28.7364 14.4812L29.732 15.0912H29.7207ZM26.5643 9.7251C26.5643 9.19413 26.519 8.62928 26.4285 8.01924C26.338 7.40919 26.1909 6.90083 25.9873 6.49413C25.7723 6.05354 25.4668 5.70333 25.0822 5.4322C24.6975 5.16107 24.2111 5.01422 23.6114 5.01422C22.6159 5.01422 21.7787 5.43221 21.1225 6.25689C20.4663 7.08158 20.1043 8.24518 20.0477 9.7251H26.5643Z" fill="#231815"/>
  <path d="M40.9206 6.14603C40.9206 6.6318 40.7962 7.06109 40.5586 7.4339C40.321 7.8067 39.959 7.99875 39.4612 7.99875C38.9294 7.99875 38.5221 7.86318 38.2393 7.58075C37.9565 7.30962 37.8207 7.00461 37.8207 6.66569C37.8207 6.45105 37.832 6.27029 37.866 6.08954C37.8999 5.92008 37.9338 5.75063 37.9565 5.58117C37.5039 5.58117 36.9835 5.76192 36.3839 6.12343C35.7843 6.48494 35.2752 6.99331 34.8566 7.65983V15.8502C34.8566 16.1778 34.9245 16.4603 35.0489 16.6636C35.1734 16.8783 35.377 17.0251 35.6598 17.1381C35.8974 17.2285 36.2029 17.3075 36.5762 17.3527C36.9496 17.3979 37.2777 17.4318 37.5605 17.4544V18.3921H30.1275V17.4544C30.3425 17.4318 30.5688 17.4205 30.8064 17.3979C31.0439 17.3753 31.2476 17.3414 31.4173 17.2849C31.6888 17.1946 31.8811 17.0477 32.0169 16.8331C32.1413 16.6184 32.2092 16.336 32.2092 15.9971V7.30963C32.2092 7.0159 32.1413 6.72217 32.0056 6.43975C31.8698 6.15732 31.6775 5.93138 31.4286 5.75062C31.2476 5.63765 31.0326 5.55857 30.7837 5.50209C30.5348 5.4456 30.2746 5.41171 29.9805 5.40042V4.46276L34.6642 4.14644L34.8679 4.34979V6.33808H34.9358C35.5241 5.56988 36.1803 4.98242 36.9043 4.58703C37.6284 4.19163 38.2959 3.98828 38.8955 3.98828C39.4951 3.98828 39.9816 4.18033 40.3549 4.57573C40.7283 4.97112 40.9206 5.4908 40.9206 6.14603Z" fill="#231815"/>
  <path d="M66.2406 18.4021H59.3733V17.4644C59.5882 17.4418 59.8145 17.4305 60.0408 17.4079C60.2671 17.3854 60.4594 17.3515 60.6291 17.295C60.9006 17.2046 61.0929 17.0577 61.2287 16.8431C61.3531 16.6284 61.421 16.346 61.421 16.0071V8.74309C61.421 7.74894 61.1948 6.99204 60.7422 6.44978C60.2897 5.90752 59.724 5.64769 59.0452 5.64769C58.5813 5.64769 58.1401 5.71547 57.7328 5.86233C57.3255 6.0092 56.9522 6.20125 56.6015 6.46108C56.33 6.67572 56.0924 6.90166 55.9114 7.1389C55.7303 7.37614 55.5833 7.57949 55.4928 7.74895V15.8715C55.4928 16.1992 55.5493 16.4816 55.6625 16.6962C55.7756 16.9109 55.9679 17.0803 56.2508 17.1933C56.4657 17.2837 56.6694 17.3402 56.8391 17.3854C57.0088 17.4305 57.2464 17.4644 57.5292 17.4757V18.4134H50.809V17.4757C51.0239 17.4531 51.2389 17.4418 51.4425 17.4192C51.6462 17.3967 51.8385 17.3628 52.0082 17.3063C52.2797 17.2159 52.4721 17.069 52.5965 16.8544C52.721 16.6397 52.7888 16.3573 52.7888 16.0184V8.75439C52.7888 7.76024 52.5626 7.00334 52.11 6.46108C51.6575 5.91882 51.0918 5.65899 50.413 5.65899C49.9492 5.65899 49.5079 5.73806 49.0893 5.88493C48.6707 6.03179 48.2974 6.23514 47.958 6.49497C47.6865 6.70961 47.4489 6.93555 47.2565 7.20668C47.0642 7.46652 46.9171 7.66987 46.8266 7.79414V15.8603C46.8266 16.1879 46.8945 16.459 47.0303 16.6736C47.166 16.8883 47.3584 17.0577 47.6299 17.1707C47.8335 17.2611 48.0372 17.3402 48.2408 17.3854C48.4445 17.4305 48.682 17.4644 48.9423 17.487V18.4247H42.0976V17.487C42.3126 17.4644 42.5388 17.4531 42.7764 17.4305C43.014 17.408 43.2176 17.3741 43.3873 17.3176C43.6589 17.2272 43.8512 17.0803 43.987 16.8657C44.1114 16.651 44.1793 16.3686 44.1793 16.0297V7.28576C44.1793 6.98074 44.1114 6.70961 43.9756 6.46108C43.8399 6.22384 43.6475 6.00919 43.3987 5.83974C43.2176 5.72677 42.9914 5.63639 42.7312 5.55731C42.4596 5.48953 42.1881 5.44433 41.9053 5.42174V4.48409L46.623 4.16777L46.8266 4.37111V6.382H46.9285C47.166 6.14476 47.4602 5.86233 47.7996 5.53472C48.139 5.2071 48.4671 4.94727 48.7612 4.75522C49.0893 4.52928 49.5079 4.33722 50.017 4.17906C50.5148 4.0322 51.0579 3.95312 51.6349 3.95312C52.5513 3.95312 53.3319 4.20166 53.9881 4.68744C54.6443 5.17321 55.1194 5.77196 55.4023 6.46108C55.7417 6.13346 56.0471 5.83974 56.3073 5.57991C56.5675 5.33137 56.9183 5.06023 57.3369 4.77781C57.6989 4.52927 58.1288 4.32593 58.6153 4.17906C59.1018 4.0322 59.6448 3.95312 60.2444 3.95312C61.4323 3.95312 62.3714 4.34852 63.0728 5.12802C63.7629 5.90752 64.1136 7.10501 64.1136 8.7205V15.8715C64.1136 16.1992 64.1702 16.4816 64.2833 16.6962C64.3965 16.9109 64.5888 17.0803 64.8716 17.1933C65.0866 17.2837 65.3129 17.3402 65.5165 17.3854C65.7201 17.4305 65.969 17.4644 66.2406 17.4757V18.4134V18.4021Z" fill="#231815"/>
  <path d="M102.998 17.7929C102.376 18.0527 101.787 18.2674 101.233 18.4368C100.679 18.6063 99.9997 18.6967 99.2078 18.6967C98.0312 18.6967 97.194 18.403 96.7188 17.8042C96.2323 17.2055 95.9948 16.3695 95.9948 15.285V5.75021H93.4492V4.38327H96.0513V0H98.6534V4.38327H102.704V5.75021H98.6874V13.613C98.6874 14.2004 98.71 14.6975 98.7552 15.0929C98.8005 15.4883 98.9023 15.8272 99.0607 16.1322C99.2078 16.4034 99.4454 16.618 99.7508 16.7649C100.056 16.9117 100.464 16.9795 100.984 16.9795C101.222 16.9795 101.572 16.9569 102.036 16.9117C102.5 16.8666 102.828 16.8101 103.02 16.7423V17.7816L102.998 17.7929Z" fill="#231815"/>
  <path d="M115.703 15.0912C115.115 16.2096 114.323 17.1134 113.327 17.7799C112.332 18.4464 111.2 18.7741 109.911 18.7741C108.779 18.7741 107.784 18.5707 106.935 18.1753C106.087 17.7799 105.374 17.2377 104.831 16.5485C104.277 15.8594 103.869 15.0686 103.598 14.1536C103.326 13.2385 103.19 12.2782 103.19 11.2502C103.19 10.3351 103.338 9.44267 103.632 8.5615C103.926 7.68033 104.344 6.88952 104.91 6.1891C105.453 5.51128 106.132 4.96902 106.935 4.55103C107.738 4.13304 108.644 3.92969 109.639 3.92969C110.635 3.92969 111.551 4.08785 112.286 4.41546C113.022 4.74308 113.61 5.18366 114.074 5.74852C114.515 6.27948 114.843 6.91213 115.058 7.63514C115.273 8.35815 115.375 9.14894 115.375 9.99623V10.9339H106.041C106.041 11.8602 106.132 12.6962 106.302 13.4531C106.471 14.21 106.754 14.8653 107.139 15.4414C107.512 15.995 107.999 16.4356 108.598 16.7519C109.198 17.0682 109.911 17.2264 110.748 17.2264C111.585 17.2264 112.332 17.023 112.943 16.6276C113.554 16.2322 114.153 15.5205 114.719 14.4812L115.714 15.0912H115.703ZM112.547 9.7251C112.547 9.19413 112.501 8.62928 112.411 8.01924C112.32 7.40919 112.173 6.90083 111.97 6.49413C111.755 6.05354 111.449 5.70333 111.065 5.4322C110.68 5.16107 110.193 5.01422 109.594 5.01422C108.598 5.01422 107.761 5.43221 107.105 6.25689C106.449 7.08158 106.087 8.24518 106.03 9.7251H112.547Z" fill="#231815"/>
  <path d="M93.2455 17.2264C92.9401 17.2264 92.7138 17.1699 92.5667 17.0795C92.2952 16.9326 92.1029 16.7406 91.9784 16.5259C91.854 16.3113 91.7861 16.0176 91.7861 15.6448C91.7861 14.4021 91.7974 13.2498 91.8313 12.1992C91.8653 11.1485 91.8766 9.93974 91.8766 8.58409C91.8766 8.22258 91.8427 7.91756 91.8087 7.60124C91.854 7.64643 91.8879 7.68033 91.8766 7.63514C91.8653 7.58995 91.82 7.52217 91.7974 7.46568C91.7408 7.0138 91.639 6.5958 91.5032 6.24559C91.2544 5.64685 90.881 5.16108 90.3945 4.81087C89.9081 4.44936 89.365 4.21212 88.7767 4.09915C88.1771 3.98617 87.487 3.92969 86.6837 3.92969C86.6498 3.92969 86.6158 3.92969 86.5706 3.92969C86.5366 3.92969 86.5027 3.92969 86.4688 3.92969C85.4732 3.92969 84.5681 4.13304 83.7648 4.55103C82.9616 4.96902 82.2828 5.51128 81.7397 6.1891C81.174 6.88952 80.8686 7.57865 80.5744 8.45982C80.4952 8.70836 79.9635 10.8322 79.5336 12.0184C79.1037 13.2046 78.4927 14.1987 78.4927 14.1987C77.9158 15.2268 77.0673 16.2322 76.4563 16.6276C75.8454 17.023 75.11 17.2264 74.2615 17.2264C73.413 17.2264 72.7116 17.0682 72.1119 16.7519C71.5123 16.4356 71.0259 15.995 70.6525 15.4414C70.2678 14.8653 69.9963 14.21 69.8153 13.4531C69.6343 12.6962 69.5551 11.8602 69.5551 10.9339H78.8887V9.99622C78.8887 9.14894 78.7869 8.36945 78.5719 7.63514C78.357 6.91212 78.0289 6.27948 77.5877 5.74852C77.1351 5.18366 76.5355 4.74308 75.8001 4.41546C75.0648 4.08785 74.1823 3.92969 73.1528 3.92969C72.1233 3.92969 71.2521 4.13304 70.4489 4.55103C69.6456 4.96902 68.9668 5.51128 68.4238 6.1891C67.8581 6.88952 67.4395 7.68033 67.1453 8.5615C66.8512 9.44267 66.7041 10.3351 66.7041 11.2502C66.7041 12.2669 66.8399 13.2385 67.1114 14.1536C67.3829 15.0686 67.7902 15.8707 68.3446 16.5485C68.8989 17.2377 69.6004 17.7799 70.4489 18.1753C71.2974 18.5707 72.293 18.7741 73.4243 18.7741C73.4469 18.7741 73.4809 18.7741 73.5035 18.7741C74.0239 18.7854 74.6349 18.7515 75.3137 18.6046C79.1602 17.8138 81.0496 13.4305 81.57 12.0071C82.7466 9.08116 82.9163 8.31296 83.4594 7.16065C84.0024 6.00835 84.8736 5.35312 85.2582 5.19496C85.6316 5.0481 86.0388 4.98032 86.4801 4.98032C87.1136 4.98032 87.6114 5.11589 87.9621 5.37572C88.3128 5.63555 88.5844 5.94058 88.7654 6.30208C88.9351 6.6184 89.0482 6.94601 89.1048 7.29622C89.1614 7.64643 89.184 7.88367 89.184 8.00794V9.42007C88.7315 9.66861 87.8377 10.0075 86.5366 10.4481C85.2356 10.8887 84.3531 11.1824 83.9232 11.3519C83.5838 11.4874 83.2105 11.6682 82.8258 11.8828C82.4298 12.1088 82.1244 12.3573 81.8868 12.651C81.5813 12.99 81.3551 13.3741 81.1967 13.8033C81.0496 14.2326 80.9704 14.7184 80.9704 15.2607C80.9704 16.3113 81.3098 17.1586 81.9886 17.8025C82.6674 18.4464 83.5386 18.7741 84.602 18.7741C85.5976 18.7741 86.4574 18.5933 87.1702 18.2318C87.8829 17.8703 88.5391 17.3506 89.1614 16.6615H89.2519C89.3763 17.328 89.6592 17.8364 90.1004 18.1866C90.5416 18.5368 91.1412 18.7063 91.8766 18.7063C92.3065 18.7063 92.6912 18.6611 93.0306 18.5594C93.37 18.4577 93.7659 18.3335 94.2072 18.164V17.249C93.8791 17.249 93.5623 17.249 93.2568 17.2377L93.2455 17.2264ZM70.6186 6.25689C71.2861 5.43221 72.1119 5.01422 73.1075 5.01422C73.7071 5.01422 74.1936 5.14977 74.5783 5.4322C74.9629 5.70333 75.2571 6.06484 75.4834 6.49413C75.687 6.90083 75.8341 7.40919 75.9246 8.01924C76.0151 8.62928 76.0604 9.19413 76.0604 9.7251H69.5438C69.6004 8.24518 69.9624 7.09288 70.6186 6.25689ZM89.1274 15.5431C88.7767 15.995 88.3355 16.3791 87.8264 16.7067C87.3173 17.0343 86.7177 17.2038 86.0388 17.2038C85.4053 17.2038 84.8736 17.023 84.455 16.6502C84.0364 16.2774 83.8327 15.7013 83.8327 14.8992C83.8327 14.2891 83.9685 13.7582 84.2513 13.3176C84.5228 12.877 84.9075 12.4929 85.3827 12.1653C85.9031 11.8264 86.4688 11.5326 87.0797 11.3067C87.6906 11.0807 88.4034 10.8435 89.2066 10.6063L89.1161 15.5431H89.1274Z" fill="#231815"/>
</svg>