<svg width="600" height="218" viewBox="0 0 600 218" fill="none" xmlns="http://www.w3.org/2000/svg">
<mask id="path-1-inside-1_302_13276" fill="white">
<path d="M0 0H600V218H0V0Z"/>
</mask>
<path d="M0 0H600V218H0V0Z" fill="white"/>
<path d="M600 217.5H0V218.5H600V217.5Z" fill="#B3B3B3" mask="url(#path-1-inside-1_302_13276)"/>
<path d="M55.0625 15.6875V27H53.6406V17.1562H53.5781L50.8281 18.9844V17.5625L53.6406 15.6875H55.0625Z" fill="#0348FF"/>
<path d="M92.0312 14.3906V24.5469H90.8125V14.3906H92.0312ZM92.4688 26.9375V27.9688H83.0625V23.5156H84.2812V26.9375H92.4688ZM84.5312 15.3594C86.6094 15.3594 88.1719 16.7656 88.1719 18.7656C88.1719 20.7969 86.6094 22.1875 84.5312 22.1875C82.4531 22.1875 80.8906 20.7969 80.8906 18.7656C80.8906 16.7656 82.4531 15.3594 84.5312 15.3594ZM84.5312 16.4375C83.125 16.4375 82.0781 17.4062 82.0938 18.7656C82.0781 20.1562 83.125 21.1094 84.5312 21.1094C85.9062 21.1094 86.9688 20.1562 86.9688 18.7656C86.9688 17.4062 85.9062 16.4375 84.5312 16.4375ZM106.188 14.375V24.7969H105.016V14.375H106.188ZM103.453 14.6562V24.4062H102.266V18.9219H100.078V17.9062H102.266V14.6562H103.453ZM106.609 26.9375V27.9688H97.0781V23.5156H98.2969V26.9375H106.609ZM98.5 17.4375C98.5 19.0625 99.5156 20.7344 101.281 21.4844L100.594 22.4531C99.3125 21.8594 98.3984 20.7969 97.9375 19.5312C97.4297 20.9219 96.4609 22.1562 95.125 22.7969L94.4375 21.8438C96.2188 21 97.3125 19.0781 97.3125 17.4375V15.3594H98.5V17.4375ZM115.141 16.4219C115.141 18.7969 117.859 20.9219 120.281 21.375L119.719 22.4062C117.625 21.9219 115.414 20.4297 114.516 18.375C113.617 20.4219 111.414 21.9141 109.312 22.4062L108.75 21.375C111.156 20.9062 113.859 18.8125 113.859 16.4219V15.3594H115.141V16.4219ZM120.938 25.3594V26.375H108.219V25.3594H120.938ZM132.984 16.4219C132.984 18.7969 135.703 20.9219 138.125 21.375L137.562 22.4062C135.469 21.9219 133.258 20.4297 132.359 18.375C131.461 20.4219 129.258 21.9141 127.156 22.4062L126.594 21.375C129 20.9062 131.703 18.8125 131.703 16.4219V15.3594H132.984V16.4219ZM138.781 25.3594V26.375H126.062V25.3594H138.781ZM151.359 23.5156V28.2656H150.141V24.5312H142.016V23.5156H151.359ZM151.359 14.375V22.8594H150.141V14.375H151.359ZM147.359 15.3281V16.3438H141.938V18.1562H146.969V19.125H141.938V21.0469C144.898 21.0469 146.539 20.9766 148.5 20.6406L148.625 21.6562C146.594 21.9844 144.891 22.0469 141.828 22.0312H140.703V15.3281H147.359ZM161.453 27.1562C159.234 27.1562 157.844 25.8281 157.844 24C157.844 22.625 158.75 21.7891 160.078 20.8594C159.305 19.9375 158.766 19.1562 158.766 18.1562C158.766 16.625 159.844 15.5781 161.516 15.5781C163.219 15.5781 164.266 16.6719 164.266 17.9531C164.266 19.0312 163.688 19.7812 162.766 20.4688L161.938 21.0938L164.375 24.0469C164.664 23.4844 164.844 22.8047 164.844 22.0312H166.141C166.141 23.6016 165.664 24.5312 165.234 25.0938L166.797 27H165.188L164.391 26.0469C163.656 26.7812 162.5 27.1562 161.453 27.1562ZM159.219 24C159.219 25.0469 160.094 25.9688 161.422 25.9688C162.188 25.9688 162.969 25.6562 163.594 25.0781L160.906 21.8594L160.516 22.1562C159.5 22.8906 159.219 23.6719 159.219 24ZM160.109 18.1719C160.109 18.7969 160.57 19.4297 161.125 20.0938L161.875 19.5469C162.5 19.125 162.922 18.7188 162.922 17.9531C162.922 17.3906 162.359 16.7344 161.562 16.7344C160.703 16.7344 160.109 17.4688 160.109 18.1719ZM183.422 15.3594V16.2656H172.156V15.3594H177.219V14.1562H178.438V15.3594H183.422ZM177.828 16.8438C180.75 16.8438 182.328 17.4375 182.328 18.6406C182.328 19.7578 180.969 20.3516 178.438 20.4375V21.4062H184.156V22.3281H171.5V21.4062H177.219V20.4375C174.664 20.3516 173.312 19.7578 173.312 18.6406C173.312 17.4375 174.875 16.8438 177.828 16.8438ZM177.828 17.6875C175.719 17.6875 174.609 18.0156 174.625 18.6406C174.609 19.2812 175.719 19.625 177.828 19.625C179.922 19.625 181.031 19.2812 181.047 18.6406C181.031 18.0156 179.922 17.6875 177.828 17.6875ZM182.531 23.2344V26.0312H174.312V27.2031H182.953V28.1094H173.062V25.1719H181.297V24.125H173.031V23.2344H182.531ZM192.406 15.7031V16.7344H187.266V23.8125C189.766 23.8125 191.422 23.7266 193.344 23.3594L193.5 24.375C191.453 24.7656 189.766 24.8594 187.094 24.8594H186.031V15.7031H192.406ZM196.859 14.375V28.2969H195.625V20.4531H191.578V19.4375H195.625V14.375H196.859Z" fill="#302A28"/>
<path d="M51.0625 72L51.0469 70.9688L54.9062 66.9062C56.25 65.4844 56.8906 64.7188 56.8906 63.6719C56.8906 62.5156 55.9062 61.75 54.6406 61.75C53.2969 61.75 52.4375 62.6094 52.4375 63.875H51.1094C51.0938 61.875 52.6406 60.5312 54.6875 60.5312C56.7344 60.5312 58.2031 61.9062 58.2031 63.6719C58.2031 64.9375 57.6094 65.9219 55.6094 67.9844L53.0156 70.6562V70.75H58.4062V72H51.0625Z" fill="#0348FF"/>
<path d="M94.4688 59.375V73.2656H93.2812V59.375H94.4688ZM91.8125 59.6875V72.5781H90.6562V65.7969H89.0469V64.7656H90.6562V59.6875H91.8125ZM89.4531 61.7812V62.7812H82.5312V61.7812H85.375V59.75H86.6094V61.7812H89.4531ZM85.9688 63.7344C87.6719 63.7344 88.9062 65.0312 88.9062 66.8906C88.9062 68.7656 87.6719 70.0625 85.9688 70.0781C84.2812 70.0625 83.0312 68.7656 83.0469 66.8906C83.0312 65.0312 84.2812 63.7344 85.9688 63.7344ZM85.9688 64.7812C84.8906 64.7812 84.125 65.6719 84.125 66.8906C84.125 68.125 84.8906 69.0312 85.9688 69.0156C87.0469 69.0312 87.8281 68.125 87.8281 66.8906C87.8281 65.6719 87.0469 64.7812 85.9688 64.7812ZM100.125 60.4531C102.016 60.4688 103.375 62.0859 103.578 64.6875H106.688V59.375H107.906V73.2969H106.688V65.7031H103.594C103.445 68.4219 102.062 70.125 100.125 70.125C98.0781 70.125 96.6406 68.25 96.6406 65.2969C96.6406 62.3438 98.0781 60.4688 100.125 60.4531ZM100.125 61.5469C98.75 61.5625 97.8125 63.0312 97.8125 65.2969C97.8125 67.5625 98.75 69.0312 100.125 69.0312C101.484 69.0312 102.438 67.5625 102.438 65.2969C102.438 63.0312 101.484 61.5625 100.125 61.5469ZM118.281 60.8438V61.875H116.672V68.5938C117.375 68.5547 118.062 68.4922 118.719 68.4219L118.797 69.3281C115.953 69.7656 112.672 69.8281 110.234 69.8281L110.109 68.7812L111.984 68.7656V61.875H110.547V60.8438H118.281ZM121.734 59.375V73.2656H120.516V65.6406H117.797V64.625H120.516V59.375H121.734ZM113.188 68.7344C113.938 68.7266 114.711 68.7031 115.484 68.6562V61.875H113.188V68.7344ZM136.703 66.0156V67.0312H133.25V68.75H135.156V73.0781H125.594V68.75H127.5V67.0312H124.047V66.0156H136.703ZM135.5 59.7969V60.8125H133.359V63.6875H135.453V64.7031H125.281V63.6875H127.375V60.8125H125.234V59.7969H135.5ZM126.812 69.75V72.0938H133.953V69.75H126.812ZM128.594 63.6875H132.141V60.8125H128.594V63.6875ZM128.719 68.75H132.031V67.0312H128.719V68.75Z" fill="#302A28"/>
<path d="M54.9688 117.156C52.7188 117.156 51.1094 115.953 51.0312 114.156H52.4531C52.5312 115.234 53.6094 115.906 54.9531 115.906C56.4375 115.906 57.5312 115.094 57.5312 113.922C57.5312 112.688 56.5469 111.812 54.7812 111.812H53.8594V110.578H54.7812C56.1562 110.578 57.1094 109.812 57.1094 108.641C57.1094 107.516 56.2812 106.75 55 106.75C53.7969 106.75 52.6875 107.422 52.625 108.531H51.2656C51.3438 106.734 53 105.531 55.0156 105.531C57.1719 105.531 58.4844 106.938 58.4688 108.562C58.4844 109.844 57.7344 110.797 56.5469 111.125V111.203C58.0156 111.438 58.9219 112.484 58.9062 113.922C58.9219 115.781 57.2188 117.156 54.9688 117.156Z" fill="#0348FF"/>
<path d="M93.3125 104.375V109.844H95.6406V110.906H93.3125V118.266H92.0938V104.375H93.3125ZM84.3594 105.562V109.234H88.4219V105.562H89.6406V114.938H83.1406V105.562H84.3594ZM84.3594 113.906H88.4219V110.219H84.3594V113.906ZM107.844 104.375V118.297H106.609V104.375H107.844ZM103.906 105.703V106.734H98.5312V113.781C101.234 113.781 103.016 113.695 105.094 113.328L105.219 114.359C103.062 114.75 101.234 114.828 98.4219 114.844H97.2969V105.703H103.906ZM117.453 105.75V114.781H111.031V105.75H117.453ZM112.234 106.734V113.781H116.25V106.734H112.234ZM121.672 104.375V118.297H120.438V104.375H121.672ZM130.969 106.422C130.969 108.797 133.688 110.922 136.109 111.375L135.547 112.406C133.453 111.922 131.242 110.43 130.344 108.375C129.445 110.422 127.242 111.914 125.141 112.406L124.578 111.375C126.984 110.906 129.688 108.812 129.688 106.422V105.359H130.969V106.422ZM136.766 115.359V116.375H124.047V115.359H136.766ZM149.125 111.891V112.891H139.516V105.578H148.969V106.609H140.766V108.672H148.672V109.656H140.766V111.891H149.125ZM150.594 115.438V116.453H137.875V115.438H150.594Z" fill="#302A28"/>
<path d="M50.7812 159.688V158.531L55.875 150.688H57.6094V158.453H59.1875V159.688H57.6094V162H56.2656V159.688H50.7812ZM52.2969 158.453H56.2656V152.469H56.125L52.2969 158.359V158.453Z" fill="#B3B3B3"/>
<path d="M94.4531 149.375V163.266H93.2656V149.375H94.4531ZM91.6094 149.719V162.547H90.4375V155.719H87.4062V154.688H90.4375V149.719H91.6094ZM88.3438 151.094V152.109H84.2969V158.891C86.2969 158.883 87.5625 158.797 89.0625 158.469L89.1875 159.516C87.5781 159.844 86.2188 159.906 83.9844 159.922H83.1094V151.094H88.3438ZM102.719 150.281C105.672 150.297 107.797 151.734 107.797 153.922C107.797 155.992 105.953 157.367 103.312 157.531V160.453H109.109V161.484H96.3906V160.453H102.109V157.531C99.4766 157.359 97.6406 155.984 97.6406 153.922C97.6406 151.734 99.7656 150.297 102.719 150.281ZM102.719 151.297C100.469 151.297 98.8281 152.359 98.8281 153.922C98.8281 155.531 100.469 156.562 102.719 156.578C104.969 156.562 106.609 155.531 106.609 153.922C106.609 152.359 104.969 151.297 102.719 151.297ZM121.438 156.062V157.078H111.844V150.672H121.297V151.688H113.062V156.062H121.438ZM122.938 160.344V161.375H110.219V160.344H122.938ZM134.906 149.391V153.656H137.016V154.703H134.906V159.609H133.688V149.391H134.906ZM135.562 161.938V162.969H126.297V158.828H127.547V161.938H135.562ZM130.938 150.297V154.266H125.875V156.438C128.344 156.453 130.133 156.352 132.297 155.984L132.422 157C130.188 157.375 128.328 157.453 125.75 157.453H124.672V153.297H129.734V151.328H124.641V150.297H130.938ZM149.125 156.891V157.891H139.516V150.578H148.969V151.609H140.766V153.672H148.672V154.656H140.766V156.891H149.125ZM150.594 160.438V161.453H137.875V160.438H150.594Z" fill="#B3B3B3"/>
<path d="M353.75 27.1562C351.703 27.1562 350.156 25.8906 350.078 24.1562H351.438C351.547 25.1719 352.531 25.9219 353.75 25.9219C355.219 25.9219 356.281 24.8438 356.281 23.4219C356.281 21.9531 355.172 20.875 353.656 20.8594C352.703 20.8438 351.969 21.1406 351.547 21.875H350.188L350.984 15.6875H357.109V16.9375H352.156L351.734 20.25H351.844C352.344 19.8594 353.109 19.5938 353.906 19.5938C356.062 19.5938 357.656 21.1875 357.656 23.3906C357.656 25.5781 356 27.1562 353.75 27.1562Z" fill="#B3B3B3"/>
<path d="M393.359 14.3906V21.8125H392.188V14.3906H393.359ZM390.656 14.6562V21.6719H389.469V18.5312H387.375V17.5312H389.469V14.6562H390.656ZM385.672 16.7188C385.672 18.1875 386.703 19.7812 388.453 20.4531L387.844 21.4062C386.523 20.8828 385.594 19.875 385.109 18.6875C384.617 20 383.641 21.1328 382.266 21.7031L381.641 20.7656C383.422 20.0312 384.484 18.3281 384.484 16.7188V16.2656H381.891V15.25H388.125V16.2656H385.672V16.7188ZM393.359 22.4219V25.625H385.391V27.0938H393.922V28.0781H384.172V24.6875H392.156V23.4062H384.141V22.4219H393.359ZM405.812 23.1094C408.672 23.1094 410.391 24.0469 410.391 25.6719C410.391 27.3125 408.672 28.25 405.812 28.2656C402.953 28.25 401.203 27.3125 401.203 25.6719C401.203 24.0469 402.953 23.1094 405.812 23.1094ZM405.812 24.0781C403.719 24.0938 402.422 24.6719 402.438 25.6719C402.422 26.6719 403.719 27.2656 405.812 27.2656C407.922 27.2656 409.203 26.6719 409.203 25.6719C409.203 24.6719 407.922 24.0938 405.812 24.0781ZM410.266 14.375V17.875H412.359V18.9219H410.266V22.7344H409.047V14.375H410.266ZM401.203 15.25V17.375H405.25V15.25H406.469V21.6562H400V15.25H401.203ZM401.203 20.6562H405.25V18.3438H401.203V20.6562ZM426.156 16.8125V17.8281H424.094V19.75H426.156V20.7812H424.094V23.3438H422.875V14.375H424.094V16.8125H426.156ZM419.703 23.4375C422.531 23.4375 424.25 24.3281 424.25 25.8438C424.25 27.3594 422.531 28.2344 419.703 28.2344C416.875 28.2344 415.141 27.3594 415.156 25.8438C415.141 24.3281 416.875 23.4375 419.703 23.4375ZM419.703 24.4062C417.625 24.4062 416.359 24.9219 416.375 25.8438C416.359 26.75 417.625 27.2812 419.703 27.2812C421.781 27.2812 423.031 26.75 423.031 25.8438C423.031 24.9219 421.781 24.4062 419.703 24.4062ZM421.547 15.9688V16.9375H413.266V15.9688H416.797V14.2656H418.016V15.9688H421.547ZM417.406 17.6562C419.406 17.6562 420.734 18.625 420.75 20.1094C420.734 21.6094 419.406 22.5625 417.406 22.5625C415.391 22.5625 414.047 21.6094 414.062 20.1094C414.047 18.625 415.391 17.6562 417.406 17.6562ZM417.406 18.5781C416.094 18.5938 415.219 19.2031 415.234 20.1094C415.219 21.0156 416.094 21.6094 417.406 21.6094C418.703 21.6094 419.578 21.0156 419.594 20.1094C419.578 19.2031 418.703 18.5938 417.406 18.5781ZM438.938 14.375V28.2656H437.766V14.375H438.938ZM436.125 14.7188V27.5469H434.969V20.3906H432.625V19.3906H434.969V14.7188H436.125ZM431.141 18.3438C431.141 20.75 432.219 23.1406 434.141 24.25L433.391 25.1562C432.023 24.3359 431.055 22.8359 430.578 21.0625C430.07 22.9766 429.062 24.6094 427.672 25.4844L426.891 24.5625C428.828 23.4062 429.953 20.875 429.953 18.3438V17.0312H427.281V16.0156H433.688V17.0312H431.141V18.3438Z" fill="#B3B3B3"/>
<path d="M354 72.1562C352.031 72.125 349.875 70.9688 349.875 66.7812C349.875 62.7812 351.516 60.5312 354.172 60.5312C356.156 60.5312 357.547 61.75 357.844 63.5312H356.453C356.188 62.5312 355.438 61.7812 354.172 61.7812C352.312 61.7812 351.203 63.375 351.203 66.0938H351.344C352 65.1562 353.031 64.5938 354.25 64.5938C356.266 64.5938 357.938 66.1562 357.938 68.3438C357.938 70.4688 356.375 72.1719 354 72.1562ZM354 70.9219C355.469 70.9219 356.562 69.7656 356.578 68.3594C356.562 66.9688 355.516 65.8281 354.031 65.8281C352.547 65.8281 351.406 67.0312 351.391 68.375C351.391 69.7031 352.484 70.9219 354 70.9219Z" fill="#B3B3B3"/>
<path d="M394.484 61.8125V62.8281H392.422V64.75H394.484V65.7812H392.422V68.3438H391.203V59.375H392.422V61.8125H394.484ZM388.031 68.4375C390.859 68.4375 392.578 69.3281 392.578 70.8438C392.578 72.3594 390.859 73.2344 388.031 73.2344C385.203 73.2344 383.469 72.3594 383.484 70.8438C383.469 69.3281 385.203 68.4375 388.031 68.4375ZM388.031 69.4062C385.953 69.4062 384.688 69.9219 384.703 70.8438C384.688 71.75 385.953 72.2812 388.031 72.2812C390.109 72.2812 391.359 71.75 391.359 70.8438C391.359 69.9219 390.109 69.4062 388.031 69.4062ZM389.875 60.9688V61.9375H381.594V60.9688H385.125V59.2656H386.344V60.9688H389.875ZM385.734 62.6562C387.734 62.6562 389.062 63.625 389.078 65.1094C389.062 66.6094 387.734 67.5625 385.734 67.5625C383.719 67.5625 382.375 66.6094 382.391 65.1094C382.375 63.625 383.719 62.6562 385.734 62.6562ZM385.734 63.5781C384.422 63.5938 383.547 64.2031 383.562 65.1094C383.547 66.0156 384.422 66.6094 385.734 66.6094C387.031 66.6094 387.906 66.0156 387.922 65.1094C387.906 64.2031 387.031 63.5938 385.734 63.5781ZM406.875 59.375V73.2656H405.641V59.375H406.875ZM402.766 60.8906C402.75 64.8906 400.891 68.4219 396.234 70.6562L395.562 69.6562C399.32 67.875 401.234 65.2109 401.516 61.8906H396.203V60.8906H402.766ZM420.156 63.5156V65.1562H425.938V66.1719H413.219V65.1562H418.953V63.5156H420.156ZM424.766 59.8125V60.7812H420.375C420.477 62.2031 422.805 63.2422 425.219 63.4375L424.812 64.3594C422.5 64.1406 420.32 63.2422 419.578 61.7812C418.82 63.2422 416.641 64.1406 414.312 64.3594L413.906 63.4375C416.305 63.2422 418.633 62.2031 418.766 60.7812H414.391V59.8125H424.766ZM424.734 68.0156V68.9844H414.422V68.0156H418.953V66.7031H420.172V68.0156H424.734ZM419.562 69.6719C422.234 69.6719 423.766 70.2969 423.766 71.5C423.766 72.7188 422.234 73.3438 419.562 73.3438C416.859 73.3438 415.375 72.7188 415.375 71.5C415.375 70.2969 416.859 69.6719 419.562 69.6719ZM419.562 70.5312C417.688 70.5469 416.609 70.8594 416.609 71.5C416.609 72.1406 417.688 72.5 419.562 72.4844C421.453 72.5 422.5 72.1406 422.516 71.5C422.5 70.8594 421.453 70.5469 419.562 70.5312ZM439.719 66.7031V67.7031H427.062V66.7031H439.719ZM438.312 71.9375V72.9688H428.703V68.9219H429.938V71.9375H438.312ZM433.391 59.875C436.375 59.8594 438.297 60.8906 438.297 62.625C438.297 64.3594 436.375 65.3906 433.391 65.3906C430.375 65.3906 428.469 64.3594 428.469 62.625C428.469 60.8906 430.375 59.8594 433.391 59.875ZM433.391 60.8594C431.156 60.8594 429.719 61.5312 429.734 62.625C429.719 63.7188 431.156 64.3906 433.391 64.3906C435.609 64.3906 437.047 63.7188 437.047 62.625C437.047 61.5312 435.609 60.8594 433.391 60.8594Z" fill="#B3B3B3"/>
<path d="M350.422 117L355.609 107.016V106.938H349.625V105.688H357.062V107L351.891 117H350.422Z" fill="#B3B3B3"/>
<path d="M393.219 112.781V113.812H387.484V118.297H386.281V113.812H380.562V112.781H393.219ZM387.5 107.125C387.5 108.859 389.922 110.375 392.406 110.719L391.953 111.703C389.805 111.375 387.781 110.297 386.906 108.781C386.016 110.312 383.961 111.375 381.812 111.703L381.359 110.719C383.828 110.375 386.281 108.875 386.281 107.125V107.109H381.797V106.109H386.281V104.375H387.484V106.109H392V107.109H387.5V107.125ZM399.125 107.703C399.125 109.547 400.594 111.172 402.656 111.812L402.047 112.797C400.438 112.273 399.172 111.172 398.547 109.75C397.945 111.273 396.688 112.453 395.047 113.031L394.438 112.078C396.484 111.391 397.922 109.656 397.922 107.703V107.25H394.781V106.25H397.922V104.469H399.156V106.25H402.266V107.25H399.125V107.703ZM405.906 104.391V114.766H404.672V109.688H401.781V108.672H404.672V104.391H405.906ZM406.297 116.938V117.969H396.984V113.828H398.219V116.938H406.297ZM411.938 105.453C413.984 105.469 415.438 107.344 415.453 110.297C415.438 113.25 413.984 115.125 411.938 115.125C409.875 115.125 408.438 113.25 408.438 110.297C408.438 107.344 409.875 105.469 411.938 105.453ZM411.938 106.547C410.562 106.562 409.594 108.031 409.594 110.297C409.594 112.562 410.562 114.031 411.938 114.031C413.328 114.031 414.266 112.562 414.266 110.297C414.266 108.031 413.328 106.562 411.938 106.547ZM418.969 104.375V109.922H421.297V110.984H418.969V118.266H417.75V104.375H418.969ZM433.5 104.375V118.297H432.266V104.375H433.5ZM426.109 105.453C428.172 105.469 429.656 107.344 429.656 110.297C429.656 113.25 428.172 115.125 426.109 115.125C424.031 115.125 422.562 113.25 422.562 110.297C422.562 107.344 424.031 105.469 426.109 105.453ZM426.109 106.547C424.719 106.562 423.75 108.031 423.75 110.297C423.75 112.562 424.719 114.031 426.109 114.031C427.5 114.031 428.469 112.562 428.469 110.297C428.469 108.031 427.5 106.562 426.109 106.547ZM441.828 105.281V106.312H437.703V108.031H441.25V109H437.703V110.891C439.711 110.883 440.961 110.812 442.453 110.531L442.578 111.516C440.969 111.812 439.656 111.891 437.406 111.891H436.531V105.281H441.828ZM447.672 104.375V112.75H446.5V104.375H447.672ZM444.969 104.625V112.625H443.781V108.891H441.906V107.875H443.781V104.625H444.969ZM447.672 113.391V118.078H438.5V113.391H447.672ZM439.703 114.391V117.078H446.469V114.391H439.703Z" fill="#B3B3B3"/>
</svg>
