<svg width="23" height="24" viewBox="0 0 23 24" fill="none" xmlns="http://www.w3.org/2000/svg">
<g id="_x37_7_Essential_Icons">
<path id="Share" d="M18.3107 15.8275C17.0031 15.8275 15.8317 16.454 15.0961 17.4075L8.47639 13.5664C8.88501 12.5585 8.88501 11.4415 8.47639 10.4336L15.0961 6.59251C15.8317 7.54597 17.0031 8.17253 18.3107 8.17253C20.5717 8.17253 22.3969 6.34733 22.3969 4.08627C22.3969 1.8252 20.5717 0 18.3107 0C16.0496 0 14.2244 1.8252 14.2244 4.08627C14.2244 4.6311 14.3334 5.17594 14.5241 5.63905L7.90431 9.50738C7.14154 8.55392 5.99739 7.92736 4.68978 7.92736C2.42871 7.92736 0.603516 9.75255 0.603516 12.0136C0.603516 14.2747 2.42871 16.0999 4.68978 16.0999C5.99739 16.0999 7.16878 15.4733 7.90431 14.5199L14.5241 18.361C14.3334 18.8241 14.2244 19.3689 14.2244 19.9137C14.2244 22.1748 16.0496 24 18.3107 24C20.5717 24 22.3969 22.1748 22.3969 19.9137C22.3969 17.6527 20.5717 15.8275 18.3107 15.8275ZM18.3107 1.11691C19.9724 1.11691 21.3073 2.45176 21.3073 4.11351C21.3073 5.77526 19.9724 7.1101 18.3107 7.1101C16.6489 7.1101 15.3141 5.77526 15.3141 4.11351C15.3141 2.45176 16.6489 1.11691 18.3107 1.11691ZM4.68978 15.0102C3.02803 15.0102 1.69319 13.6754 1.69319 12.0136C1.69319 10.3519 3.02803 9.01703 4.68978 9.01703C6.35153 9.01703 7.68638 10.3519 7.68638 12.0136C7.68638 13.6754 6.35153 15.0102 4.68978 15.0102ZM18.3107 22.9103C16.6489 22.9103 15.3141 21.5755 15.3141 19.9137C15.3141 18.252 16.6489 16.9171 18.3107 16.9171C19.9724 16.9171 21.3073 18.252 21.3073 19.9137C21.3073 21.5755 19.9724 22.9103 18.3107 22.9103Z" fill="#B3B3B3"/>
</g>
</svg>
