<svg width="11" height="12" viewBox="0 0 11 12" fill="none" xmlns="http://www.w3.org/2000/svg">
<path d="M10.6159 4.94402C10.4614 4.75847 10.268 4.60911 10.0494 4.50647C9.83077 4.40384 9.59231 4.35043 9.35081 4.35002H6.84259L7.15062 3.56352C7.27875 3.21915 7.32141 2.84885 7.27497 2.48438C7.22852 2.1199 7.09435 1.77213 6.88395 1.4709C6.67356 1.16967 6.39322 0.923962 6.06699 0.754863C5.74077 0.585764 5.37839 0.498317 5.01094 0.500025C4.90513 0.500245 4.80163 0.530976 4.71285 0.588532C4.62407 0.646088 4.55377 0.728026 4.51039 0.824524L2.94276 4.35002H1.65014C1.2125 4.35002 0.792778 4.52385 0.483316 4.83329C0.173854 5.14272 0 5.56241 0 6.00001V9.85C0 10.2876 0.173854 10.7073 0.483316 11.0167C0.792778 11.3262 1.2125 11.5 1.65014 11.5H8.65225C9.03828 11.4999 9.41205 11.3644 9.70852 11.1172C10.005 10.87 10.2054 10.5267 10.2749 10.147L10.9735 6.29701C11.0167 6.05907 11.007 5.81454 10.9452 5.58074C10.8835 5.34693 10.771 5.12956 10.6159 4.94402ZM2.75024 10.4H1.65014C1.50426 10.4 1.36435 10.3421 1.2612 10.2389C1.15805 10.1358 1.1001 9.99587 1.1001 9.85V6.00001C1.1001 5.85414 1.15805 5.71425 1.2612 5.6111C1.36435 5.50796 1.50426 5.45001 1.65014 5.45001H2.75024V10.4ZM9.90086 6.09901L9.2023 9.949C9.17887 10.0771 9.11072 10.1928 9.01 10.2754C8.90927 10.358 8.7825 10.4021 8.65225 10.4H3.85033V5.01551L5.34647 1.64952C5.50047 1.69442 5.64349 1.77075 5.76651 1.87369C5.88953 1.97664 5.98987 2.10397 6.0612 2.24764C6.13252 2.39132 6.17329 2.54821 6.18092 2.70844C6.18855 2.86866 6.16288 3.02872 6.10553 3.17852L5.81401 3.96502C5.75189 4.13126 5.73092 4.31006 5.75288 4.48616C5.77485 4.66226 5.8391 4.83043 5.94015 4.97632C6.0412 5.12221 6.17605 5.24149 6.3332 5.32398C6.49034 5.40646 6.66511 5.4497 6.84259 5.45001H9.35081C9.43162 5.44988 9.51147 5.46756 9.58467 5.50178C9.65787 5.536 9.72263 5.58593 9.77435 5.64801C9.82734 5.70924 9.86615 5.78141 9.88802 5.85937C9.90989 5.93733 9.91427 6.01916 9.90086 6.09901Z" fill="#302A28"/>
</svg>
