<svg width="46" height="46" viewBox="0 0 46 46" fill="none" xmlns="http://www.w3.org/2000/svg">
  <g id="Frame 1707482572">
    <path id="Vector" d="M13.0007 8.93171C10.3331 11.5089 10.3331 15.686 13.0007 18.262L23.0012 27.9169L32.9993 18.262C35.6669 15.686 35.6669 11.5077 32.9993 8.93286L32.7792 8.72943C30.0986 6.358 25.9339 6.42543 23.3373 8.93286L23 9.25857L22.6627 8.93286C19.9951 6.35571 15.6683 6.35571 13.0019 8.93286L13.0007 8.93171ZM21.826 9.74086L23 10.8746L24.1752 9.74086C26.3801 7.61057 29.9566 7.61057 32.1614 9.74086C34.3674 11.87 34.3674 15.3237 32.1614 17.454L23.0012 26.3009L13.8386 17.454C11.6326 15.3237 11.6326 11.87 13.8386 9.73971C16.0434 7.61057 19.62 7.61057 21.826 9.73971V9.74086Z" fill="black"/>
  </g>
</svg>
