<svg width="41" height="41" viewBox="0 0 41 41" fill="none" xmlns="http://www.w3.org/2000/svg">
<g id="instagram">
<path id="Vector" d="M29.6218 9.3288C29.2164 9.3288 28.82 9.44903 28.4829 9.67429C28.1458 9.89955 27.8831 10.2197 27.7279 10.5943C27.5727 10.9689 27.5321 11.3811 27.6112 11.7787C27.6903 12.1764 27.8856 12.5417 28.1723 12.8284C28.459 13.1151 28.8243 13.3103 29.2219 13.3894C29.6196 13.4685 30.0318 13.4279 30.4064 13.2728C30.7809 13.1176 31.1011 12.8548 31.3264 12.5177C31.5516 12.1806 31.6719 11.7843 31.6719 11.3788C31.6719 10.8351 31.4559 10.3137 31.0714 9.92923C30.687 9.54478 30.1655 9.3288 29.6218 9.3288ZM37.4802 13.463C37.447 12.0456 37.1815 10.6432 36.6943 9.31172C36.26 8.17249 35.5839 7.1409 34.7127 6.28797C33.8668 5.41232 32.8328 4.74052 31.6889 4.32339C30.361 3.82141 28.957 3.54987 27.5377 3.52047C25.7269 3.41797 25.146 3.41797 20.4993 3.41797C15.8527 3.41797 15.2718 3.41797 13.461 3.52047C12.0417 3.54987 10.6377 3.82141 9.30977 4.32339C8.16805 4.74474 7.13494 5.41597 6.28602 6.28797C5.41037 7.1339 4.73857 8.16789 4.32143 9.31172C3.81946 10.6397 3.54792 12.0436 3.51852 13.463C3.41602 15.2738 3.41602 15.8546 3.41602 20.5013C3.41602 25.148 3.41602 25.7288 3.51852 27.5396C3.54792 28.959 3.81946 30.3629 4.32143 31.6909C4.73857 32.8347 5.41037 33.8687 6.28602 34.7146C7.13494 35.5866 8.16805 36.2579 9.30977 36.6792C10.6377 37.1812 12.0417 37.4527 13.461 37.4821C15.2718 37.5846 15.8527 37.5846 20.4993 37.5846C25.146 37.5846 25.7269 37.5846 27.5377 37.4821C28.957 37.4527 30.361 37.1812 31.6889 36.6792C32.8328 36.2621 33.8668 35.5903 34.7127 34.7146C35.5878 33.8649 36.2644 32.8324 36.6943 31.6909C37.1815 30.3594 37.447 28.957 37.4802 27.5396C37.4802 25.7288 37.5827 25.148 37.5827 20.5013C37.5827 15.8546 37.5827 15.2738 37.4802 13.463ZM34.4052 27.3346C34.3927 28.419 34.1963 29.4935 33.8243 30.5121C33.5516 31.2556 33.1135 31.9274 32.5431 32.4767C31.989 33.0413 31.3186 33.4785 30.5785 33.758C29.5598 34.13 28.4854 34.3264 27.401 34.3388C25.6927 34.4242 25.0606 34.4413 20.5677 34.4413C16.0748 34.4413 15.4427 34.4413 13.7343 34.3388C12.6084 34.3599 11.4872 34.1865 10.4202 33.8263C9.71256 33.5326 9.07292 33.0965 8.54102 32.5451C7.974 31.9962 7.54137 31.3239 7.27685 30.5805C6.85977 29.5472 6.62844 28.4484 6.59352 27.3346C6.59352 25.6263 6.49102 24.9942 6.49102 20.5013C6.49102 16.0084 6.49102 15.3763 6.59352 13.668C6.60117 12.5594 6.80356 11.4607 7.19143 10.4221C7.49218 9.70107 7.9538 9.0583 8.54102 8.54297C9.06003 7.95559 9.70147 7.48909 10.4202 7.1763C11.4615 6.80054 12.559 6.60415 13.666 6.59547C15.3743 6.59547 16.0064 6.49297 20.4993 6.49297C24.9923 6.49297 25.6243 6.49297 27.3327 6.59547C28.4171 6.60791 29.4915 6.80431 30.5102 7.1763C31.2865 7.46442 31.9833 7.93283 32.5431 8.54297C33.1029 9.06773 33.5404 9.7093 33.8243 10.4221C34.204 11.4624 34.4006 12.5606 34.4052 13.668C34.4906 15.3763 34.5077 16.0084 34.5077 20.5013C34.5077 24.9942 34.4906 25.6263 34.4052 27.3346ZM20.4993 11.7376C18.7668 11.7409 17.0741 12.2578 15.6351 13.2228C14.1962 14.1878 13.0756 15.5577 12.4149 17.1594C11.7542 18.761 11.5831 20.5226 11.9232 22.2215C12.2632 23.9203 13.0993 25.4803 14.3256 26.7042C15.5519 27.9281 17.1135 28.7611 18.813 29.0979C20.5125 29.4347 22.2737 29.2601 23.8741 28.5963C25.4745 27.9325 26.8422 26.8092 27.8044 25.3684C28.7666 23.9276 29.2802 22.2339 29.2802 20.5013C29.2824 19.3484 29.0567 18.2063 28.6161 17.1409C28.1754 16.0755 27.5284 15.1078 26.7123 14.2933C25.8963 13.4788 24.9273 12.8338 23.861 12.3951C22.7947 11.9565 21.6523 11.733 20.4993 11.7376ZM20.4993 26.1901C19.3742 26.1901 18.2744 25.8564 17.3388 25.2313C16.4033 24.6062 15.6742 23.7178 15.2436 22.6783C14.8131 21.6388 14.7004 20.495 14.9199 19.3915C15.1394 18.288 15.6812 17.2743 16.4768 16.4787C17.2724 15.6832 18.286 15.1414 19.3895 14.9219C20.493 14.7024 21.6369 14.815 22.6763 15.2456C23.7158 15.6762 24.6043 16.4053 25.2294 17.3408C25.8545 18.2763 26.1881 19.3762 26.1881 20.5013C26.1881 21.2484 26.041 21.9881 25.7551 22.6783C25.4692 23.3685 25.0502 23.9956 24.5219 24.5239C23.9937 25.0521 23.3665 25.4711 22.6763 25.757C21.9861 26.0429 21.2464 26.1901 20.4993 26.1901Z" fill="#B3B3B3"/>
</g>
</svg>
