<svg width="41" height="41" viewBox="0 0 41 41" fill="none" xmlns="http://www.w3.org/2000/svg">
<g id="whatsapp">
<path id="Vector" d="M28.3577 23.9177C28.016 23.7469 25.7952 22.7219 25.4535 22.551C25.1118 22.3802 24.7702 22.3802 24.4285 22.7219C24.0868 23.0635 23.4035 24.0885 23.0618 24.4302C22.891 24.7719 22.5493 24.7719 22.2077 24.601C21.0118 24.0885 19.816 23.4052 18.791 22.551C17.9368 21.6969 17.0827 20.6719 16.3994 19.6469C16.2285 19.3052 16.3993 18.9635 16.5702 18.7927C16.741 18.6219 16.9118 18.2802 17.2535 18.1094C17.4243 17.9385 17.5952 17.5969 17.5952 17.426C17.766 17.2552 17.766 16.9135 17.5952 16.7427C17.4243 16.5719 16.5702 14.5219 16.2285 13.6677C16.0577 12.4719 15.716 12.4719 15.3743 12.4719H14.5202C14.1785 12.4719 13.666 12.8135 13.4952 12.9844C12.4702 14.0094 11.9577 15.2052 11.9577 16.5719C12.1285 18.1094 12.641 19.6469 13.666 21.0135C15.5452 23.7469 17.9368 25.9677 20.841 27.3344C21.6952 27.676 22.3785 28.0177 23.2327 28.1885C24.0868 28.5302 24.941 28.5302 25.966 28.3594C27.1618 28.1885 28.1868 27.3344 28.8702 26.3094C29.2118 25.626 29.2118 24.9427 29.041 24.2594L28.3577 23.9177ZM32.6285 8.37188C25.966 1.70938 15.2035 1.70938 8.54102 8.37188C3.07435 13.8385 2.04935 22.2094 5.80768 28.8719L3.41602 37.5844L12.4702 35.1927C15.0327 36.5594 17.766 37.2427 20.4993 37.2427C29.8952 37.2427 37.4118 29.726 37.4118 20.3302C37.5827 15.8885 35.7035 11.6177 32.6285 8.37188ZM28.016 32.2885C25.7952 33.6552 23.2327 34.5094 20.4993 34.5094C17.9368 34.5094 15.5452 33.826 13.3243 32.6302L12.8118 32.2885L7.51602 33.6552L8.88268 28.5302L8.54102 28.0177C4.44102 21.1844 6.49102 12.6427 13.1535 8.37188C19.816 4.10104 28.3577 6.32188 32.4577 12.8135C36.5577 19.476 34.6785 28.1885 28.016 32.2885Z" fill="#B3B3B3"/>
</g>
</svg>
