<svg width="41" height="41" viewBox="0 0 41 41" fill="none" xmlns="http://www.w3.org/2000/svg">
<g id="youtube">
<path id="Vector" d="M39.2937 16.5867C39.3782 14.1415 38.8434 11.7146 37.7391 9.53131C36.9899 8.63546 35.95 8.0309 34.8008 7.82298C30.0474 7.39167 25.2743 7.21489 20.502 7.2934C15.7471 7.21133 10.9913 7.3824 6.25454 7.8059C5.31807 7.97625 4.45142 8.4155 3.76037 9.07006C2.22287 10.488 2.05204 12.9138 1.88121 14.9638C1.63335 18.6497 1.63335 22.348 1.88121 26.0338C1.93063 27.1876 2.10243 28.3329 2.39371 29.4505C2.59969 30.3133 3.01643 31.1116 3.60662 31.7738C4.30237 32.4631 5.1892 32.9273 6.15204 33.1063C9.83506 33.5609 13.5461 33.7493 17.2562 33.6701C23.2354 33.7555 28.48 33.6701 34.6812 33.1917C35.6677 33.0237 36.5795 32.5589 37.295 31.8592C37.7732 31.3808 38.1305 30.7951 38.337 30.1509C38.948 28.2762 39.2481 26.3142 39.2254 24.3426C39.2937 23.3859 39.2937 17.6117 39.2937 16.5867ZM16.6412 25.3676V14.793L26.7545 20.1059C23.9187 21.6776 20.1775 23.4542 16.6412 25.3676Z" fill="#B3B3B3"/>
</g>
</svg>
