<svg width="16" height="14" viewBox="0 0 16 14" fill="none" xmlns="http://www.w3.org/2000/svg">
<path d="M1.33379 1.31515C-0.444598 3.03325 -0.444598 5.81801 1.33379 7.53534L8.00079 13.9719L14.6662 7.53534C16.4446 5.81801 16.4446 3.03249 14.6662 1.31592L14.5195 1.1803C12.7324 -0.400656 9.95592 -0.355704 8.22486 1.31592L8 1.53306L7.77514 1.31592C5.99675 -0.40218 3.11219 -0.40218 1.33458 1.31592L1.33379 1.31515ZM7.21732 1.85458L8 2.61039L8.78347 1.85458C10.2534 0.434391 12.6377 0.434391 14.1076 1.85458C15.5783 3.27401 15.5783 5.57649 14.1076 6.99668L8.00079 12.8946L1.8924 6.99668C0.421717 5.57649 0.421717 3.27401 1.8924 1.85382C3.3623 0.434391 5.74663 0.434391 7.21732 1.85382V1.85458Z" fill="#B3B3B3"/>
</svg>
